<?xml version="1.0" encoding="UTF-8"?>
<svg version="1.1" xmlns="http://www.w3.org/2000/svg" width="2084" height="2084">
<path d="M0 0 C5.01957537 3.05258973 7.66819947 7.19731853 9.546875 12.66796875 C10.48579859 16.64192167 10.82052682 20.37640033 10.8125 24.4375 C10.81334595 25.53203491 10.81334595 25.53203491 10.81420898 26.64868164 C10.65530332 34.69208672 9.05758909 43.19732182 5.4375 50.4375 C6.38367188 50.37691406 7.32984375 50.31632813 8.3046875 50.25390625 C11.89780435 50.02519479 15.49131345 49.80321047 19.08496094 49.58300781 C20.62478466 49.48776757 22.1645045 49.39082888 23.70410156 49.29199219 C31.87971872 48.76832521 40.05777419 48.32536824 48.25 48.1875 C49.51457031 48.16171875 50.77914062 48.1359375 52.08203125 48.109375 C56.00072952 48.49257716 58.63641345 49.63641345 61.4375 52.4375 C61.6875 55.375 61.6875 55.375 61.4375 58.4375 C58.44510103 60.43243264 57.35100475 60.76665614 53.92529297 61.15185547 C53.01359344 61.25891815 52.10189392 61.36598083 51.16256714 61.47628784 C50.17821686 61.58465973 49.19386658 61.69303162 48.1796875 61.8046875 C46.08850184 62.05305033 43.99735728 62.3017594 41.90625 62.55078125 C38.61548239 62.93323504 35.32431024 63.31116919 32.03222656 63.68212891 C28.85060935 64.04378518 25.67148736 64.42326663 22.4921875 64.8046875 C21.5199826 64.90901093 20.54777771 65.01333435 19.54611206 65.12081909 C12.14135322 66.02286515 4.75887554 67.48066785 -0.45141602 73.2331543 C-2.67901782 76.61435862 -4.11833392 79.88156926 -5.33984375 83.70703125 C-5.70600296 84.79528198 -5.70600296 84.79528198 -6.07955933 85.90551758 C-6.89882589 88.34971646 -7.69915524 90.79970933 -8.5 93.25 C-9.08349233 95.00200884 -9.6684191 96.75354048 -10.25463867 98.50463867 C-11.58569105 102.48437388 -12.90993307 106.46630629 -14.23144531 110.44921875 C-16.89864898 118.46738901 -19.61703707 126.46800248 -22.3359375 134.46875 C-22.83863893 135.94877584 -23.3413092 137.42881227 -23.84394836 138.90885925 C-24.59988592 141.13466749 -25.35583649 143.3604713 -26.11185169 145.58625317 C-28.56762302 152.81640857 -31.02329029 160.0465932 -33.47073746 167.27957153 C-33.91615317 168.59504719 -34.36214492 169.91032795 -34.80874252 171.22540283 C-35.42451228 173.0388454 -36.0381138 174.85302379 -36.65161133 176.66723633 C-37.17118156 178.20049309 -37.17118156 178.20049309 -37.70124817 179.76472473 C-38.41494876 181.97959524 -39.03660267 184.17212046 -39.5625 186.4375 C-35.79297383 184.43247403 -32.02517193 182.42425184 -28.25878906 180.41333008 C-26.98319182 179.73280887 -25.70716513 179.0530919 -24.43066406 178.37426758 C-21.33140434 176.72580306 -18.24013543 175.06530009 -15.16186523 173.37792969 C-12.83095726 172.10305454 -10.50315487 170.92664411 -8.10571289 169.77050781 C-2.71606513 167.028356 0.78897358 165.04618617 2.97265625 159.2421875 C3.52017284 157.27591627 4.02786932 155.29822143 4.5 153.3125 C9.65484978 135.31533258 17.88326326 119.3837337 30.4375 105.4375 C30.89705078 104.91897461 31.35660156 104.40044922 31.83007812 103.86621094 C43.99137966 90.34331723 61.64552919 76.56455838 80.48901367 75.29980469 C96.00604518 74.63697244 111.03459239 75.96692845 123.09375 86.9453125 C128.67285058 93.14070907 128.82949287 99.97437796 128.6796875 107.9140625 C127.61526294 123.399723 117.84352089 134.82003602 107.4375 145.4375 C106.74527344 146.16839844 106.05304688 146.89929687 105.33984375 147.65234375 C100.10765643 153.07791787 94.34471167 157.7690221 88.4375 162.4375 C87.92525879 162.84790527 87.41301758 163.25831055 86.88525391 163.68115234 C72.84397834 174.91849984 55.68965696 187.83004901 37.4375 190.4375 C37.85372598 192.90705394 37.85372598 192.90705394 39.4375 195.4375 C46.85674281 199.42190817 54.52140138 199.50880478 62.6640625 197.734375 C78.98463016 192.79767959 94.48846374 184.3142813 109.375 176.125 C110.05280518 175.7535083 110.73061035 175.3820166 111.42895508 174.99926758 C113.46014684 173.85413077 115.44552013 172.6495942 117.4375 171.4375 C118.23820419 170.97656952 119.03890839 170.51563904 119.86387634 170.04074097 C126.91363596 165.63935017 129.45677319 161.65210686 131.8515625 153.80859375 C132.1957724 152.783069 132.5399823 151.75754425 132.8946228 150.70094299 C133.9831508 147.43531262 135.02387287 144.15680012 136.0625 140.875 C136.76499296 138.73135863 137.47069985 136.58876771 138.1796875 134.44726562 C139.23364478 131.25884259 140.28538795 128.06985938 141.32672119 124.87728882 C143.69393129 117.62462395 146.14283911 110.4067523 148.7109375 103.22265625 C149.02664703 102.32187851 149.34235657 101.42110077 149.66763306 100.49302673 C152.62384479 92.3273794 155.45277552 87.28727788 163.4375 83.4375 C170.03085182 81.44881696 176.38710079 81.60136863 182.6875 84.4375 C188.68686565 87.7673366 191.94521234 92.2494309 194.8125 98.375 C196.42220812 106.26256979 195.06867204 113.64574072 193.4375 121.4375 C194.00855469 120.51453125 194.57960938 119.5915625 195.16796875 118.640625 C200.10996371 110.67771653 205.11523737 102.75558021 210.1875 94.875 C210.71754639 94.04323242 211.24759277 93.21146484 211.79370117 92.35449219 C221.30961194 77.6406654 221.30961194 77.6406654 228.4375 75.4375 C239.58774515 73.5710809 248.31090132 77.41828519 257.4375 83.4375 C264.54538952 88.62363422 270.84902966 94.4112509 272.4375 103.4375 C275.06470121 125.27341829 261.86259311 150.52744161 254 170.125 C249.87720789 180.40977558 246.20431454 190.76767396 242.8125 201.3125 C242.59626984 201.98107025 242.38003967 202.6496405 242.15725708 203.33847046 C240.22042186 209.35079761 238.35566523 215.17493127 237.4375 221.4375 C227.08246797 221.1351633 216.59465199 220.69051843 208.625 213.3125 C201.77461069 205.63874659 197.13632723 197.17204411 197.375 186.75 C199.19750278 169.11926663 208.35212608 151.75945842 214.81323242 135.40014648 C215.26983246 134.23927269 215.26983246 134.23927269 215.73565674 133.0549469 C216.3149065 131.58283517 216.89687103 130.11178803 217.48187256 128.64195251 C218.93980817 125.14581494 218.93980817 125.14581494 219.4375 121.4375 C218.1175 121.1075 216.7975 120.7775 215.4375 120.4375 C215.17324219 121.17097656 214.90898438 121.90445312 214.63671875 122.66015625 C213.43230926 125.44952154 212.09013992 127.46616342 210.25 129.875 C205.45085673 136.33738426 200.91234712 142.96547687 196.42993164 149.65112305 C193.24411974 154.39037656 190.01571434 159.04221584 186.51953125 163.55859375 C177.13949207 175.95602142 172.21928793 188.1837702 168.11230469 203.02636719 C167.90748978 203.74378586 167.70267487 204.46120453 167.49165344 205.20036316 C166.93755949 207.16057398 166.41294513 209.12904967 165.89038086 211.09790039 C163.87126849 215.73904274 161.00839026 218.15205487 156.4375 220.4375 C148.11622646 221.34621942 142.21717546 220.38236885 135.4375 215.4375 C134.60734375 214.83550781 133.7771875 214.23351563 132.921875 213.61328125 C130.21774245 211.24503938 128.52533851 208.91802572 126.625 205.875 C126.02042969 204.92496094 125.41585937 203.97492188 124.79296875 202.99609375 C123.4375 200.4375 123.4375 200.4375 123.4375 197.4375 C122.36773926 198.01081055 122.36773926 198.01081055 121.27636719 198.59570312 C74.45671576 223.57620415 74.45671576 223.57620415 52.4375 224.4375 C51.43203125 224.47746094 50.4265625 224.51742188 49.390625 224.55859375 C34.02178967 224.86524891 21.19255856 222.15412749 9.859375 211.28515625 C3.9893731 204.38317015 2.2530881 196.08824328 0.4375 187.4375 C-0.03969482 187.8092334 -0.51688965 188.1809668 -1.00854492 188.56396484 C-17.01205207 201.02799477 -17.01205207 201.02799477 -24.5625 206.8125 C-28.41478144 209.7660777 -32.22487893 212.76099054 -36 215.8125 C-43.4459527 221.78615735 -48.6322989 225.36845635 -58.5625 224.4375 C-70.49245666 221.45501084 -80.07409917 212.2486276 -86.68359375 202.21875 C-88.80820681 198.41886502 -89.2189141 194.86992583 -89.125 190.5625 C-89.11259277 189.81911377 -89.10018555 189.07572754 -89.08740234 188.30981445 C-88.62944298 176.70532002 -84.19227001 166.14470933 -80.29806519 155.340271 C-74.37154594 138.88736241 -68.72585994 122.34549918 -63.14105225 105.77404785 C-61.94219165 102.21854787 -60.74048051 98.66401145 -59.5390625 95.109375 C-57.210869 88.21965031 -54.88564065 81.32893033 -52.5625 74.4375 C-53.36847626 74.50733093 -54.17445251 74.57716187 -55.00485229 74.64910889 C-56.07172272 74.7400885 -57.13859314 74.83106812 -58.23779297 74.92480469 C-59.29126923 75.01526062 -60.34474548 75.10571655 -61.43014526 75.19891357 C-87.6992059 77.1997857 -87.6992059 77.1997857 -97.625 70.3125 C-100.76636415 65.65112093 -101.11585561 61.37073459 -100.08203125 55.890625 C-98.79809515 51.43586327 -98.79809515 51.43586327 -97.5625 49.4375 C-93.85784908 47.58963798 -89.63209907 48.83379074 -85.6875 49.375 C-72.04775666 51.05980404 -58.27845492 50.61500863 -44.5625 50.4375 C-44.18963867 49.22690918 -43.81677734 48.01631836 -43.43261719 46.76904297 C-42.04089114 42.25961714 -40.6363661 37.75426239 -39.22802734 33.25 C-38.62136045 31.30348906 -38.01812591 29.35590478 -37.41845703 27.40722656 C-36.55370377 24.59928811 -35.67650072 21.79549736 -34.796875 18.9921875 C-34.53316101 18.12633026 -34.26944702 17.26047302 -33.9977417 16.36837769 C-31.5757061 8.72499479 -28.72284943 3.55089223 -21.5625 -0.5625 C-15.02842103 -2.74052632 -6.35456493 -2.84859807 0 0 Z M76.4375 116.4375 C75.65632813 117.08589844 74.87515625 117.73429687 74.0703125 118.40234375 C59.89452853 130.61294894 47.98252232 147.23695961 40.4375 164.4375 C40.7675 165.0975 41.0975 165.7575 41.4375 166.4375 C56.03049359 158.68497215 68.91538962 149.19118907 80.88671875 137.8125 C83.4375 135.4375 83.4375 135.4375 85.91796875 133.546875 C89.08597038 130.89459457 91.51995201 127.92855018 94.0625 124.6875 C94.77792969 123.81351563 94.77792969 123.81351563 95.5078125 122.921875 C98.8821154 118.64775799 100.73936409 114.61168593 102.4375 109.4375 C100.23452795 106.92574716 100.23452795 106.92574716 97.05078125 106.1484375 C89.03943374 107.03459552 82.4430789 111.33389968 76.4375 116.4375 Z " fill="#FFFFFF" transform="translate(449.5625,928.5625)"/>
<path d="M0 0 C11.73171797 1.53197692 23.83896376 4.1615315 31.53515625 13.953125 C35.70064418 20.31672756 37.38988936 26.31327126 37.375 33.9375 C37.37584595 35.03880249 37.37584595 35.03880249 37.37670898 36.16235352 C37.21837607 44.2252191 35.6296744 52.7406512 32 60 C33.16982422 59.93941406 34.33964844 59.87882813 35.54492188 59.81640625 C39.91330702 59.59070976 44.28182672 59.36771504 48.65039062 59.14550781 C50.53584468 59.04923206 52.42126221 58.95223797 54.30664062 58.85449219 C57.02724919 58.71357272 59.74798162 58.57529525 62.46875 58.4375 C63.30241089 58.39375244 64.13607178 58.35000488 64.99499512 58.30493164 C81.51749088 57.47818305 81.51749088 57.47818305 86.8125 61.3125 C88.45861422 63.65171494 88.35842561 65.20428024 88 68 C85.52358131 70.47641869 84.34186428 70.43046961 80.91113281 70.86962891 C79.84952942 71.00962311 78.78792603 71.14961731 77.69415283 71.29385376 C76.54211365 71.43664764 75.39007446 71.57944153 74.203125 71.7265625 C73.02159851 71.87910492 71.84007202 72.03164734 70.6227417 72.18881226 C68.1181497 72.51044177 65.61302176 72.82792047 63.10742188 73.14160156 C59.27867767 73.62140622 55.45179115 74.11425924 51.625 74.609375 C49.19280715 74.92004545 46.76051834 75.22996574 44.328125 75.5390625 C43.18418274 75.68590485 42.04024048 75.83274719 40.8616333 75.98403931 C39.78742126 76.11772919 38.71320923 76.25141907 37.60644531 76.38916016 C36.66649719 76.50748199 35.72654907 76.62580383 34.75811768 76.74771118 C31.82432217 77.01606949 28.94440707 77.04242534 26 77 C25.82934525 77.65366547 25.65869049 78.30733093 25.48286438 78.98080444 C23.58424258 86.1123438 21.39043529 93.10634949 19.04296875 100.1015625 C18.47307976 101.81101799 18.47307976 101.81101799 17.89167786 103.55500793 C16.66005863 107.24605143 15.4239112 110.93555924 14.1875 114.625 C13.54823519 116.53738624 12.90943601 118.44992763 12.27064323 120.36247158 C6.35187431 138.07983481 0.36665665 155.77428189 -5.72192383 173.43408203 C-8.29659764 180.91334498 -10.84085616 188.38736074 -13 196 C-12.37134033 195.69819824 -11.74268066 195.39639648 -11.0949707 195.08544922 C-9.22386435 194.18763307 -7.35205912 193.29127268 -5.47973633 192.39599609 C-3.359955 191.3780174 -1.24390805 190.35222733 0.8684082 189.31884766 C9.88208075 184.93690171 9.88208075 184.93690171 14.28125 183.53125 C17.76568242 182.34846101 20.21409977 181.41195389 23 179 C24.9645341 174.16259882 25.75036673 169.39608337 26.56787109 164.26367188 C30.5033226 143.64813156 43.9831579 124.88968575 58 110 C58.53882813 109.39671875 59.07765625 108.7934375 59.6328125 108.171875 C73.14478426 93.64141291 92.03638199 84.39470184 111.875 83.5625 C123.67143899 83.90991855 136.27996119 87.18807454 145.3125 95 C145.869375 95.66 146.42625 96.32 147 97 C147.721875 97.78375 148.44375 98.5675 149.1875 99.375 C151.25376905 102.36752759 151.76483273 104.39410179 152 108 C151.67 108.99 151.34 109.98 151 111 C151.66 111 152.32 111 153 111 C152.76796875 112.06154297 152.76796875 112.06154297 152.53125 113.14453125 C151.82514471 116.93984716 151.57267839 120.72840488 151.28125 124.57421875 C151 127 151 127 150 129 C149.34 129 148.68 129 148 129 C147.90074219 129.72574219 147.80148437 130.45148438 147.69921875 131.19921875 C146.91094585 134.35671412 145.72819402 136.19480773 143.8125 138.8125 C143.18085937 139.67875 142.54921875 140.545 141.8984375 141.4375 C141.27195312 142.283125 140.64546875 143.12875 140 144 C139.47664063 144.7425 138.95328125 145.485 138.4140625 146.25 C135.3162538 150.57709787 132.13705806 153.67236635 128 157 C127.38382813 157.79664063 126.76765625 158.59328125 126.1328125 159.4140625 C123.93772263 162.07550846 121.83576201 163.7421335 119 165.6875 C114.90793923 168.56869999 111.08952399 171.59264763 107.3125 174.875 C93.65463623 186.33847692 77.59782833 194.61366124 61 201 C61.87887015 203.55790681 61.87887015 203.55790681 64 206 C73.75116556 209.87321746 84.44935983 208.1111434 93.8984375 204.21777344 C109.56938137 197.22624067 123.86343188 187.13656812 136 175 C144.94245363 170.98502082 154.3150545 167.77168483 164 171 C165.63482652 174.26965305 165.70599409 177.90599157 166.125 181.5 C166.22425781 182.28503906 166.32351563 183.07007813 166.42578125 183.87890625 C167.12147842 189.75704317 167.12147842 189.75704317 166 192 C166.33 192.66 166.66 193.32 167 194 C167.66 194 168.32 194 169 194 C168.67 195.65 168.34 197.3 168 199 C169.32 199 170.64 199 172 199 C172 199.99 172 200.98 172 202 C177.16130836 203.44516634 182.87264098 205.02395751 188 203 C192.22881857 199.1645599 194.24037583 195.35655751 195.07421875 189.6796875 C194.72801021 177.17973706 179.63261849 164.33361758 171.85546875 155.37109375 C162.28520671 144.30778112 154.53328909 133.74762805 154.7890625 118.5546875 C155.71164778 107.38115472 159.67376736 98.79257231 167.875 91.1875 C176.87232493 83.80901194 188.94047261 79.74137352 200.5625 80 C203.95772455 80.07534479 206.72311934 79.83222366 210 79 C210.33 79.33 210.66 79.66 211 80 C211.7425 79.979375 212.485 79.95875 213.25 79.9375 C216.31681419 80.00720032 218.17238533 80.8554893 221 82 C221.99 82.103125 222.98 82.20625 224 82.3125 C235.60365709 83.80729425 244.58198161 89.82278243 252.8125 97.6875 C256.79413106 103.71682703 259.3313894 110.72170695 259 118 C259 118.99 259 119.98 259 121 C255.91559308 127.79422354 251.4920097 132.17970849 244.609375 134.96875 C239.27131701 136.73718639 234.60682652 137.4077692 229 137 C227.09723462 135.09723462 227.50454974 131.61054293 227.25 129.0625 C226.10101415 119.2576654 222.54819665 110.73228538 214.875 104.1875 C209.65381635 102.03092415 204.23657845 102.1146877 199 104.1875 C196.61210367 106.35153105 195.88147432 107.91483986 195 111 C194.71125 111.845625 194.4225 112.69125 194.125 113.5625 C193.70667304 116.16668257 193.70667304 116.16668257 195.875 118.125 C196.57625 118.74375 197.2775 119.3625 198 120 C199 123 199 123 199 126 C199.99 126 200.98 126 202 126 C205.49550411 128.7758415 206.23182801 130.72018465 207 135 C208.94220597 137.47189851 209.93738507 137.97912836 213 139 C213.68175909 140.66055014 214.346247 142.32822572 215 144 C216.80867718 146.27856325 216.80867718 146.27856325 218.9375 148.3125 C219.62714844 149.00988281 220.31679687 149.70726562 221.02734375 150.42578125 C222.97017925 152.31187541 222.97017925 152.31187541 226 152 C232.1475555 158.37404439 235.85310236 164.03924369 236 173 C236.66 173.33 237.32 173.66 238 174 C238 176.31 238 178.62 238 181 C238.66 181 239.32 181 240 181 C239.48640344 196.26621488 238.50560007 208.0448843 226.9375 219.125 C215.53287249 228.40076371 202.1157947 230.32552517 188 231 C187.16597656 231.05414062 186.33195312 231.10828125 185.47265625 231.1640625 C171.17881162 231.70160879 154.32223641 228.1103726 142.9375 219.125 C138.49018183 214.85737145 135.68979309 209.47695426 133 204 C132.071875 205.7325 132.071875 205.7325 131.125 207.5 C122.87554432 220.52908459 106.30708053 227.08457329 92 231 C91.37013184 231.17660156 90.74026367 231.35320312 90.09130859 231.53515625 C75.12818339 235.34135662 55.33930975 235.51817465 41.703125 227.6796875 C39.62260056 226.24834926 37.8304395 224.73770798 36 223 C35.06027344 222.12021484 35.06027344 222.12021484 34.1015625 221.22265625 C29.176292 216.14152276 26.99072355 210.72641994 25 204 C20.67655633 205.51746984 17.04285901 207.78257374 13.265625 210.32421875 C12.62816345 210.74870804 11.9907019 211.17319733 11.33392334 211.61054993 C9.98772823 212.50856508 8.64304954 213.40885713 7.29980469 214.3112793 C5.27416595 215.67127519 3.24301096 217.02269014 1.2109375 218.37304688 C-5.1394066 222.61138768 -11.36992237 226.87901371 -17.27441406 231.73364258 C-22.03741041 235.22906732 -28.39497877 234.49392907 -34 234 C-43.39424493 231.39877169 -51.50586 223.03624722 -57.53125 215.74609375 C-59.06670114 213.84580288 -59.06670114 213.84580288 -61.375 211.8125 C-63.3579604 209.60073647 -63.67618796 207.91430837 -64 205 C-63.67 205 -63.34 205 -63 205 C-62.96261719 204.11699219 -62.92523437 203.23398438 -62.88671875 202.32421875 C-62.50533707 195.36213362 -61.76155794 189.04904834 -59.62109375 182.40234375 C-58.9587205 179.840334 -58.96022278 177.63413559 -59 175 C-57.94762144 172.3690536 -57.0215339 171.0215339 -55 169 C-52.9581471 164.75706714 -51.55359824 160.76161882 -52 156 C-51.34 155.67 -50.68 155.34 -50 155 C-49.07864552 152.94955802 -49.07864552 152.94955802 -48.30859375 150.44921875 C-48.00373047 149.52302734 -47.69886719 148.59683594 -47.38476562 147.64257812 C-47.07216797 146.66740234 -46.75957031 145.69222656 -46.4375 144.6875 C-46.12103516 143.72392578 -45.80457031 142.76035156 -45.47851562 141.76757812 C-44.20494158 137.86573662 -42.95458389 133.99349345 -42 130 C-41.5 128 -41.5 128 -41 126 C-40.34 126 -39.68 126 -39 126 C-38.89042969 125.45472656 -38.78085938 124.90945313 -38.66796875 124.34765625 C-37.22155729 117.46838223 -35.05361995 111.00524828 -32.73046875 104.37890625 C-32.27847222 103.06516389 -31.82665005 101.75136152 -31.375 100.4375 C-30.94960937 99.21933594 -30.52421875 98.00117187 -30.0859375 96.74609375 C-29.27558497 93.95066903 -28.75884718 91.6131174 -28.43212891 88.76586914 C-28.2182251 86.90176392 -28.2182251 86.90176392 -28 85 C-28.98806641 85.01571045 -29.97613281 85.0314209 -30.99414062 85.04760742 C-34.69164747 85.10227853 -38.38911924 85.13648392 -42.08691406 85.16479492 C-43.68137641 85.17979745 -45.27579808 85.20020621 -46.87011719 85.22631836 C-49.17393077 85.26308134 -51.4771946 85.27981155 -53.78125 85.29296875 C-54.48366821 85.30845261 -55.18608643 85.32393646 -55.90979004 85.33988953 C-60.95706319 85.34157115 -65.55671905 84.51018019 -70 82 C-72.8596011 78.75675722 -73.88281964 75.90396278 -74.4375 71.625 C-73.89728733 67.14895216 -72.59960242 63.19895634 -71 59 C-69.38158203 59.09087891 -69.38158203 59.09087891 -67.73046875 59.18359375 C-64.55740321 59.36144574 -61.38420361 59.53670336 -58.2109375 59.7109375 C-54.84067393 59.89628308 -51.47100743 60.08942187 -48.1015625 60.2890625 C-38.38538314 60.85109033 -28.73335962 61.13094206 -19 61 C-18.79246094 59.72511719 -18.58492187 58.45023438 -18.37109375 57.13671875 C-16.87025905 49.64310519 -14.33323744 42.47566918 -11.88696289 35.24926758 C-11.06156336 32.80973169 -10.24590184 30.36710154 -9.43164062 27.92382812 C-8.90421251 26.35137231 -8.37623651 24.77910014 -7.84765625 23.20703125 C-7.60692886 22.48707474 -7.36620148 21.76711823 -7.11817932 21.02534485 C-5.60910621 16.58056576 -3.87471618 12.3029455 -2 8 C-1.55979277 6.53342724 -1.15298139 5.05537993 -0.8125 3.5625 C-0.544375 2.386875 -0.27625 1.21125 0 0 Z M99 126 C98.24203125 126.61359375 97.4840625 127.2271875 96.703125 127.859375 C83.85887863 138.74016969 70.83197007 154.69210102 66 171 C66 171.99 66 172.98 66 174 C79.19629401 169.22583055 90.46385467 158.98200066 101 150 C101.54350098 149.53916016 102.08700195 149.07832031 102.64697266 148.60351562 C111.31604016 141.19424553 121.0687912 132.04175586 125 121 C124.61288532 118.20402805 124.61288532 118.20402805 123 116 C113.80335689 114.82094319 105.69736518 120.32513332 99 126 Z " fill="#06C372" transform="translate(1475,917)"/>
<path d="M0 0 C5.59137949 3.37887664 10.95614309 9.07457238 12.5625 15.5 C15.30334058 27.51753178 9.22048771 40.10674183 5.5625 51.5 C5.84351563 50.7265625 6.12453125 49.953125 6.4140625 49.15625 C7.86272867 45.80559354 9.93036959 44.00679086 12.5625 41.5 C14.91610398 38.75412869 16.41673387 36.93729839 17.5625 33.5 C18.87044331 32.14175118 20.21150897 30.81543863 21.5625 29.5 C23.28449349 27.47941857 24.99137161 25.44793014 26.68359375 23.40234375 C30.68952485 19.34644262 34.20672363 18.005661 39.875 17.8125 C51.511915 18.06919665 62.40046005 24.35356404 70.66015625 32.34375 C76.85896201 39.36991176 80.92789505 44.95827898 80.83886719 54.37988281 C80.36882542 59.68653813 78.53995886 64.41259995 76.6875 69.375 C73.95178073 77.03867259 71.68144633 84.05501484 71.109375 92.20703125 C70.5625 94.5 70.5625 94.5 68.734375 96.32421875 C65.25001229 98.21053741 62.22433259 97.47767375 58.5625 96.5 C47.72097537 92.67274262 39.47202148 87.86660669 32.5625 78.5 C32.38332031 77.7678125 32.20414063 77.035625 32.01953125 76.28125 C31.86871094 75.6934375 31.71789063 75.105625 31.5625 74.5 C30.5725 74.17 29.5825 73.84 28.5625 73.5 C28.8925 72.51 29.2225 71.52 29.5625 70.5 C28.9025 70.17 28.2425 69.84 27.5625 69.5 C27.5625 67.52 27.5625 65.54 27.5625 63.5 C28.2225 63.5 28.8825 63.5 29.5625 63.5 C29.5315625 61.953125 29.5315625 61.953125 29.5 60.375 C29.55538859 56.94090756 29.95671052 53.86761712 30.5625 50.5 C23.57579706 59.0307862 16.63137562 67.57901803 9.96484375 76.36328125 C8.33468393 78.49176635 6.69260572 80.58794627 5.00390625 82.66796875 C-7.64222868 98.36347524 -14.5174219 116.42315114 -21.2109375 135.2734375 C-21.69801935 136.63538588 -22.18524311 137.99728353 -22.67260742 139.35913086 C-23.63035784 142.03649585 -24.56747433 144.71993554 -25.4934082 147.40844727 C-25.93257568 148.64393311 -26.37174316 149.87941895 -26.82421875 151.15234375 C-27.20795654 152.25570068 -27.59169434 153.35905762 -27.98706055 154.49584961 C-29.93703274 158.53463227 -32.63867118 161.19739982 -36.25 163.8125 C-42.56269809 165.79649083 -46.75483668 164.61545414 -52.5625 161.8125 C-57.04099775 159.4127012 -60.76352462 156.99475707 -64.4375 153.5 C-65.365625 152.675 -66.29375 151.85 -67.25 151 C-69.69294919 148.20805807 -70.02686071 147.11362579 -70.4375 143.5 C-70.75755548 141.97631708 -71.09212828 140.45564476 -71.4375 138.9375 C-71.6025 138.19371094 -71.7675 137.44992187 -71.9375 136.68359375 C-72.41116833 134.61499533 -72.91984528 132.55794711 -73.4375 130.5 C-74.39785156 131.26441406 -75.35820313 132.02882813 -76.34765625 132.81640625 C-104.35579051 154.8255315 -132.46703786 174.12636019 -169.51953125 171.26171875 C-180.10265681 169.88854781 -190.91283786 165.31212028 -197.76171875 156.8671875 C-207.48185844 142.91455455 -207.49060796 124.11908548 -204.77734375 107.890625 C-202.77670163 98.28800459 -198.71676673 89.27558117 -194.4375 80.5 C-193.87933594 79.35402344 -193.32117188 78.20804688 -192.74609375 77.02734375 C-180.20702719 52.61834876 -159.91090825 32.50270779 -133.59765625 23.8046875 C-128.38594425 22.3165497 -123.46168705 22.00003255 -118.0625 22.0625 C-117.1456543 22.06934814 -116.22880859 22.07619629 -115.28417969 22.08325195 C-108.09496218 22.2530009 -101.97539113 23.38914697 -95.4375 26.5 C-94.62152344 26.86222656 -93.80554688 27.22445312 -92.96484375 27.59765625 C-85.95023374 31.05226385 -80.94373621 35.85992917 -77.9375 43.125 C-75.63912035 56.29549015 -79.59115404 68.2762406 -87.0625 79 C-94.04803354 88.09561027 -101.55263185 96.16040607 -110.5859375 103.234375 C-113.09167081 105.2252316 -115.48239255 107.30338753 -117.87060547 109.43212891 C-128.9053591 119.15330326 -141.49044097 126.87738621 -154.75 133.1875 C-155.43674805 133.51451904 -156.12349609 133.84153809 -156.83105469 134.1784668 C-160.68220543 135.92981435 -164.23497659 137.01133449 -168.4375 137.5 C-167.55638208 141.12237366 -166.75937136 142.2970811 -163.5625 144.3125 C-152.97857115 148.07229403 -141.2936615 145.04884367 -131.4375 140.5 C-118.42451049 133.60694632 -106.25707665 125.24880428 -94.4375 116.5 C-92.68094028 115.24616608 -90.91790981 114.00180215 -89.15454102 112.75756836 C-81.76307082 107.53415458 -74.53581159 102.11635026 -67.4375 96.5 C-66.38304687 95.71367188 -65.32859375 94.92734375 -64.2421875 94.1171875 C-61.09720457 91.18245412 -59.99011395 88.96374458 -58.5625 84.9375 C-58.15257812 83.82246094 -57.74265625 82.70742187 -57.3203125 81.55859375 C-56.25262457 78.39005527 -56.25262457 78.39005527 -56.4375 74.5 C-55.7775 74.5 -55.1175 74.5 -54.4375 74.5 C-54.18444092 73.62846283 -54.18444092 73.62846283 -53.92626953 72.73931885 C-51.90486373 65.87960333 -49.64863684 59.11761271 -47.3125 52.359375 C-46.92433105 51.23356018 -46.53616211 50.10774536 -46.13623047 48.94781494 C-45.32041489 46.58430341 -44.5035038 44.22116975 -43.68554688 41.85839844 C-42.43690524 38.24828041 -41.19488748 34.63592661 -39.953125 31.0234375 C-39.15665364 28.71861048 -38.35979211 26.41391824 -37.5625 24.109375 C-37.00925049 22.4967276 -37.00925049 22.4967276 -36.44482422 20.85150146 C-31.63638076 7.01672534 -31.63638076 7.01672534 -27.0625 3.25 C-26.21558594 2.53070312 -26.21558594 2.53070312 -25.3515625 1.796875 C-18.3390898 -2.95443303 -7.72574823 -3.42356686 0 0 Z M-129.84375 63.12109375 C-130.6996875 63.90613281 -131.555625 64.69117188 -132.4375 65.5 C-133.3965625 66.37785156 -134.355625 67.25570313 -135.34375 68.16015625 C-145.58164501 77.82743624 -153.60225666 88.91819362 -160.5625 101.125 C-160.94108154 101.78790039 -161.31966309 102.45080078 -161.7097168 103.13378906 C-163.59370763 106.55858861 -164.94532063 109.60730866 -165.4375 113.5 C-152.14452871 106.59184169 -140.66331384 98.32443103 -129.4375 88.5 C-128.67308594 87.84773438 -127.90867187 87.19546875 -127.12109375 86.5234375 C-118.25674781 78.92542669 -109.02512226 70.51029343 -104.4375 59.5 C-104.74128052 56.81006947 -104.74128052 56.81006947 -105.4375 54.5 C-114.53614454 51.54908826 -123.18199509 57.39746572 -129.84375 63.12109375 Z " fill="#FFFFFF" transform="translate(1063.4375,981.5)"/>
<path d="M0 0 C6.67633192 3.55186753 10.57965436 9.38799481 13.09765625 16.3125 C15.28708205 25.2681832 14.42635809 34.2770663 12.04321289 43.08813477 C11.72502012 44.2763437 11.72502012 44.2763437 11.40039921 45.48855686 C7.42785899 59.81085704 2.48188606 73.86823629 -2.24545407 87.95443797 C-3.70936134 92.32082585 -5.16628341 96.68954373 -6.62400818 101.05799866 C-9.38023376 109.31431878 -12.14255691 117.56858481 -14.90717405 125.82209831 C-18.0418094 135.18124734 -21.16961466 144.54267407 -24.29683602 153.90430248 C-29.64672599 169.91933253 -35.00143931 185.93274255 -40.36238098 201.94407654 C-40.70079287 202.95513889 -40.70079287 202.95513889 -41.04604137 203.98662674 C-41.68779502 205.90308569 -42.3305757 207.81920063 -42.97339058 209.73530388 C-43.76316829 212.10289681 -44.54530457 214.47305391 -45.31937981 216.8458271 C-45.67139521 217.92215841 -46.02341061 218.99848972 -46.38609314 220.10743713 C-46.68975768 221.04510705 -46.99342222 221.98277697 -47.30628872 222.94886112 C-49.00456046 227.61501892 -51.50286726 230.12468201 -55.66796875 232.62890625 C-61.60842706 235.34422768 -68.20924165 235.39178203 -74.46875 233.69140625 C-80.7486609 230.95994986 -85.28499767 225.73999003 -88.54296875 219.81640625 C-89.41088414 216.3447447 -89.74184831 212.86981734 -90.16796875 209.31640625 C-90.45929688 209.78949219 -90.750625 210.26257812 -91.05078125 210.75 C-107.20863045 236.81596428 -107.20863045 236.81596428 -123.73828125 240.9609375 C-134.35276884 242.51386093 -143.09769976 240.72507851 -151.91796875 234.56640625 C-162.47881755 226.34084373 -167.67266837 216.48341436 -169.8828125 203.13671875 C-172.32860225 178.94685302 -166.3647014 147.10607163 -150.90039062 127.72802734 C-147.81751588 124.09369954 -144.5164132 120.70501195 -141.16796875 117.31640625 C-140.60722656 116.68347656 -140.04648437 116.05054688 -139.46875 115.3984375 C-128.17740714 102.92165182 -110.08716897 92.70642214 -93.3125 91.03125 C-86.88472871 90.8273345 -80.54682962 91.23245842 -75.6015625 95.74609375 C-71.89122468 99.99554048 -70.77237014 103.57626459 -70.90625 109.19921875 C-71.36441719 112.90558619 -72.68881115 115.61245457 -75.16796875 118.31640625 C-77.46946029 119.9708747 -79.83311808 121.34538483 -82.3125 122.71875 C-105.99695441 135.97038044 -119.98820075 156.23729394 -127.38989258 182.15698242 C-129.86361867 191.40946734 -131.51595404 200.70041273 -131.16796875 210.31640625 C-130.08121881 212.40624856 -130.08121881 212.40624856 -128.16796875 213.31640625 C-125.34079315 213.07982252 -124.30252691 212.45377943 -122.30078125 210.41015625 C-121.63820313 209.55421875 -120.975625 208.69828125 -120.29296875 207.81640625 C-119.50535156 206.81609375 -118.71773437 205.81578125 -117.90625 204.78515625 C-117.47135254 204.22957031 -117.03645508 203.67398437 -116.58837891 203.1015625 C-115.0749561 201.19950895 -113.52401169 199.33409766 -111.9609375 197.47265625 C-103.87227659 187.83056681 -96.27301531 177.91046975 -88.90136719 167.71142578 C-87.15723254 165.30157214 -85.40204263 162.90011063 -83.64453125 160.5 C-82.5061127 158.93909208 -81.36807736 157.37790457 -80.23046875 155.81640625 C-79.72314209 155.12361572 -79.21581543 154.4308252 -78.69311523 153.71704102 C-77.15964115 151.60012816 -75.66039595 149.46243231 -74.16796875 147.31640625 C-73.31174927 146.12362061 -73.31174927 146.12362061 -72.43823242 144.90673828 C-67.14965658 137.16654786 -64.24225461 129.01145591 -61.35546875 120.19140625 C-60.81153684 118.5641495 -60.26691642 116.93712276 -59.72167969 115.31030273 C-50.41339371 87.37405094 -41.25923052 59.30076348 -33.16015625 30.98828125 C-32.94766235 30.24561508 -32.73516846 29.50294891 -32.51623535 28.73777771 C-31.59099287 25.48600661 -30.68546952 22.23098402 -29.80371094 18.96704102 C-27.41546832 10.33178678 -25.2659024 4.96841069 -17.16796875 0.31640625 C-11.82064319 -1.4660356 -5.4141374 -1.70716044 0 0 Z " fill="#FFFFFF" transform="translate(882.16796875,911.68359375)"/>
<path d="M0 0 C13.56830732 1.82179677 26.41384841 5.97481594 35.38671875 16.73828125 C40.57947293 24.01819571 41.85944803 31.22393595 41 40 C39.06795243 51.13677992 34.45930695 61.55170099 30.3125 72 C28.92580426 75.4969951 27.54824306 78.99739822 26.17578125 82.5 C25.85708572 83.2947876 25.5383902 84.0895752 25.21003723 84.90844727 C24.91940903 85.65022217 24.62878082 86.39199707 24.3293457 87.15625 C24.07192093 87.80400391 23.81449615 88.45175781 23.54927063 89.11914062 C22.81311804 91.31336702 22.81311804 91.31336702 23 95 C25.34659717 95.41833833 25.34659717 95.41833833 28 95 C29.99484924 92.90740325 29.99484924 92.90740325 31.625 90 C32.31207031 88.90171875 32.99914063 87.8034375 33.70703125 86.671875 C34.07521973 86.07568359 34.4434082 85.47949219 34.82275391 84.86523438 C36.8878599 81.5932705 39.10701755 78.42826052 41.3125 75.25 C42.24898317 73.89082149 43.1851774 72.53144387 44.12109375 71.171875 C46.06917083 68.34726306 48.02039106 65.52484338 49.97265625 62.703125 C50.45887451 61.99897461 50.94509277 61.29482422 51.44604492 60.56933594 C52.36524672 59.2381973 53.28586796 57.90803715 54.20825195 56.57910156 C55.06549586 55.33700257 55.91454733 54.08921018 56.75537109 52.8359375 C57.55506423 51.65631953 58.3793448 50.49280474 59.23291016 49.3515625 C64.12489757 42.39338206 66.14443237 34.03635952 68.625 26 C69.34249882 23.71000714 70.06317648 21.42104622 70.78549194 19.13256836 C71.23089849 17.71781004 71.67306486 16.30202552 72.11123657 14.88500977 C76.1830312 1.8169688 76.1830312 1.8169688 78 0 C88.77335248 0.35322467 98.27833501 4.27483222 106.08984375 11.74609375 C112.66291413 19.50204797 114.81826533 28.07034259 114 38 C111.5583608 50.10496654 107.58558421 61.76488623 103.625 73.4375 C103.01212193 75.25767429 102.39966282 77.0779897 101.78759766 78.8984375 C100.19135834 83.63939079 98.58649371 88.37737487 96.97875977 93.11444092 C95.99900569 96.00293141 95.02163059 98.89221674 94.04492188 101.78173828 C92.46199761 106.46345149 90.87522546 111.14384092 89.28485107 115.82302856 C88.68468653 117.58883771 88.08510492 119.35484511 87.48614502 121.12106323 C85.9040177 125.78157994 84.30440091 130.43507748 82.67028809 135.07763672 C82.06149348 136.82363881 81.4752569 138.5774656 80.89160156 140.33203125 C80.56901367 141.24339844 80.24642578 142.15476562 79.9140625 143.09375 C79.53048584 144.21813477 79.53048584 144.21813477 79.13916016 145.36523438 C78 147 78 147 75.57104492 147.79541016 C67.84701141 148.41004695 57.93726864 142.83054094 52 138 C47.13057558 133.25617581 43.29946646 128.96412386 42.76953125 121.94921875 C42.78371094 120.87285156 42.79789063 119.79648438 42.8125 118.6875 C42.81894531 117.61886719 42.82539062 116.55023437 42.83203125 115.44921875 C43.02023094 111.58455994 43.47750977 107.83298836 44 104 C43.32195312 105.12535156 42.64390625 106.25070312 41.9453125 107.41015625 C35.87350317 117.44303554 29.64650495 127.33693971 23 137 C22.58024902 137.62551758 22.16049805 138.25103516 21.72802734 138.89550781 C17.9487939 144.40635371 14.46782311 146.84405896 8 149 C-1.54309408 149.9940723 -9.99815077 145.62067683 -17.5078125 140.06640625 C-23.24706885 135.30768115 -28.65501418 130.07739174 -33 124 C-32.34 124 -31.68 124 -31 124 C-31.33 123.34 -31.66 122.68 -32 122 C-32.41770071 115.05451138 -32.44067583 108.5593163 -30 102 C-30.66 101.67 -31.32 101.34 -32 101 C-31.01 100.505 -31.01 100.505 -30 100 C-29.1253536 97.84602005 -28.34854047 95.6520655 -27.6171875 93.4453125 C-27.39805695 92.78796112 -27.17892639 92.13060974 -26.95315552 91.45333862 C-26.49074294 90.06073386 -26.03201 88.66690274 -25.57666016 87.27197266 C-24.87919326 85.13783074 -24.16910036 83.00821464 -23.45703125 80.87890625 C-20.96948776 74.08109425 -20.96948776 74.08109425 -20 67 C-19.34 67 -18.68 67 -18 67 C-17.87882812 66.32453125 -17.75765625 65.6490625 -17.6328125 64.953125 C-17.46523437 64.06109375 -17.29765625 63.1690625 -17.125 62.25 C-16.88136719 60.92742187 -16.88136719 60.92742187 -16.6328125 59.578125 C-16.02519918 57.10266333 -15.32177701 55.17358885 -14 53 C-13.01 52.505 -13.01 52.505 -12 52 C-11.29136957 50.30033584 -11.29136957 50.30033584 -10.75 48.125 C-9.74039715 44.5370268 -8.68400756 40.97382364 -7.54296875 37.42578125 C-7.27967773 36.6064209 -7.01638672 35.78706055 -6.74511719 34.94287109 C-6.21820936 33.30830998 -5.68901791 31.67448273 -5.15722656 30.04150391 C-2.64954819 22.20865859 -0.85503947 14.67817751 -0.375 6.4375 C-0.30023437 5.21933594 -0.22546875 4.00117187 -0.1484375 2.74609375 C-0.09945313 1.83988281 -0.05046875 0.93367187 0 0 Z M45 101 C46 103 46 103 46 103 Z " fill="#05C371" transform="translate(1310,1002)"/>
<path d="M0 0 C15.97792203 -0.42255662 29.61007088 3.03332854 42.11328125 13.3125 C52.57746385 23.41584871 56.58232626 38.79268422 56.85498047 52.97070312 C56.95877029 79.12573716 47.54472228 105.83052714 29.61328125 125.125 C28.80890625 125.99769531 28.00453125 126.87039063 27.17578125 127.76953125 C12.87966301 142.66876698 -3.35777906 150.01596655 -23.91943359 150.52978516 C-40.5890603 150.68706793 -53.84261003 148.65975814 -66.671875 137.05859375 C-71.7774072 131.72402832 -74.88542052 126.03923503 -77.38671875 119.125 C-77.69480469 118.28066406 -78.00289062 117.43632813 -78.3203125 116.56640625 C-81.48368538 106.13787078 -81.13804475 94.93476242 -81.38671875 84.125 C-80.72671875 84.125 -80.06671875 84.125 -79.38671875 84.125 C-79.40992188 83.29355469 -79.433125 82.46210937 -79.45703125 81.60546875 C-79.47507812 80.51878906 -79.493125 79.43210937 -79.51171875 78.3125 C-79.53492188 77.23355469 -79.558125 76.15460938 -79.58203125 75.04296875 C-79.38671875 72.125 -79.38671875 72.125 -77.38671875 69.125 C-76.78636698 67.7036925 -76.22587646 66.26521235 -75.6953125 64.81640625 C-75.39044922 63.98689453 -75.08558594 63.15738281 -74.77148438 62.30273438 C-74.45888672 61.43970703 -74.14628906 60.57667969 -73.82421875 59.6875 C-73.34952148 58.39875977 -73.34952148 58.39875977 -72.86523438 57.08398438 C-71.18443619 52.56826297 -71.18443619 52.56826297 -69.87451172 47.93847656 C-69.24695424 45.605395 -68.13282873 44.77109414 -66.38671875 43.125 C-65.29298936 41.58419874 -64.2314065 40.02018789 -63.19921875 38.4375 C-62.40451172 37.22513672 -62.40451172 37.22513672 -61.59375 35.98828125 C-61.19542969 35.37339844 -60.79710937 34.75851562 -60.38671875 34.125 C-58.17307148 36.33864727 -57.75257485 37.69873339 -56.76171875 40.625 C-51.97822022 52.68773543 -42.83427624 59.22843817 -32.38671875 66.125 C-32.6772525 67.89601956 -32.96922745 69.66680269 -33.26171875 71.4375 C-33.4421875 72.54867188 -33.62265625 73.65984375 -33.80859375 74.8046875 C-34.14833462 76.75590195 -34.51993263 78.70286023 -34.96484375 80.6328125 C-36.39200482 86.97348527 -36.63016814 93.21315618 -36.69921875 99.6875 C-36.72556396 100.99932251 -36.72556396 100.99932251 -36.75244141 102.33764648 C-36.74538215 109.86634836 -35.66853208 117.01919852 -31.13671875 123.1875 C-27.23888676 125.93369981 -24.174554 126.5616489 -19.44140625 125.8203125 C-11.65062257 123.59000972 -7.10469665 117.30134096 -3.28125 110.50390625 C2.74914659 99.18743309 7.24486596 87.29005717 9.21484375 74.578125 C9.57993503 72.3303081 10.09641033 70.19993017 10.67578125 68 C12.81729952 58.69198359 12.6881939 48.63890638 12.61328125 39.125 C11.95328125 39.125 11.29328125 39.125 10.61328125 39.125 C10.51015625 38.073125 10.40703125 37.02125 10.30078125 35.9375 C9.62360112 32.1822284 8.92186359 30.11760673 6.61328125 27.125 C2.38435366 24.584052 -1.57269575 24.21253812 -6.38671875 25.125 C-10.11324874 27.05079066 -13.60926126 29.18319859 -15.2109375 33.18359375 C-15.62125652 35.3377362 -15.62125652 35.3377362 -13.69921875 37.4375 C-10.89377916 40.00586018 -7.68249633 41.75156786 -4.38671875 43.625 C5.71804925 49.37962188 5.71804925 49.37962188 7.55078125 55 C7.65579258 60.25056659 6.70298089 63.82914097 3.30078125 67.875 C-3.0502932 73.19217861 -3.0502932 73.19217861 -8.0390625 72.94140625 C-12.73039471 72.26594846 -16.49550481 70.41163106 -20.63671875 68.1875 C-21.67699219 67.64706055 -21.67699219 67.64706055 -22.73828125 67.09570312 C-24.05660359 66.41002398 -25.37254389 65.71973673 -26.68554688 65.02392578 C-28.57132553 64.02745089 -30.47316558 63.06698107 -32.38671875 62.125 C-32.38671875 61.465 -32.38671875 60.805 -32.38671875 60.125 C-33.2065625 59.78855469 -33.2065625 59.78855469 -34.04296875 59.4453125 C-42.96785712 54.41762538 -49.21569253 45.63807866 -52.38671875 36.125 C-52.92715391 29.74786515 -52.14393738 25.38099983 -48.38671875 20.125 C-38.3364843 8.58751113 -22.77196718 2.02635158 -7.82421875 0.4375 C-5.21689897 0.26098188 -2.60958147 0.13667202 0 0 Z " fill="#05C371" transform="translate(1222.38671875,1000.875)"/>
<path d="M0 0 C5.59137949 3.37887664 10.95614309 9.07457238 12.5625 15.5 C15.30334058 27.51753178 9.22048771 40.10674183 5.5625 51.5 C5.84351563 50.7265625 6.12453125 49.953125 6.4140625 49.15625 C7.86272867 45.80559354 9.93036959 44.00679086 12.5625 41.5 C14.91610398 38.75412869 16.41673387 36.93729839 17.5625 33.5 C18.87044331 32.14175118 20.21150897 30.81543863 21.5625 29.5 C23.28449349 27.47941857 24.99137161 25.44793014 26.68359375 23.40234375 C30.68952485 19.34644262 34.20672363 18.005661 39.875 17.8125 C51.511915 18.06919665 62.40046005 24.35356404 70.66015625 32.34375 C76.85896201 39.36991176 80.92789505 44.95827898 80.83886719 54.37988281 C80.36882542 59.68653813 78.53995886 64.41259995 76.6875 69.375 C73.95178073 77.03867259 71.68144633 84.05501484 71.109375 92.20703125 C70.5625 94.5 70.5625 94.5 68.734375 96.32421875 C65.25001229 98.21053741 62.22433259 97.47767375 58.5625 96.5 C47.72097537 92.67274262 39.47202148 87.86660669 32.5625 78.5 C32.38332031 77.7678125 32.20414063 77.035625 32.01953125 76.28125 C31.86871094 75.6934375 31.71789063 75.105625 31.5625 74.5 C30.0775 74.005 30.0775 74.005 28.5625 73.5 C29.0575 72.015 29.0575 72.015 29.5625 70.5 C28.9025 70.17 28.2425 69.84 27.5625 69.5 C27.5625 67.52 27.5625 65.54 27.5625 63.5 C28.2225 63.5 28.8825 63.5 29.5625 63.5 C29.541875 62.46875 29.52125 61.4375 29.5 60.375 C29.55538859 56.94090756 29.95671052 53.86761712 30.5625 50.5 C23.57579706 59.0307862 16.63137562 67.57901803 9.96484375 76.36328125 C8.33468393 78.49176635 6.69260572 80.58794627 5.00390625 82.66796875 C-7.64222868 98.36347524 -14.5174219 116.42315114 -21.2109375 135.2734375 C-21.69801935 136.63538588 -22.18524311 137.99728353 -22.67260742 139.35913086 C-23.63035784 142.03649585 -24.56747433 144.71993554 -25.4934082 147.40844727 C-25.93257568 148.64393311 -26.37174316 149.87941895 -26.82421875 151.15234375 C-27.20795654 152.25570068 -27.59169434 153.35905762 -27.98706055 154.49584961 C-29.93703274 158.53463227 -32.63867118 161.19739982 -36.25 163.8125 C-42.56269809 165.79649083 -46.75483668 164.61545414 -52.5625 161.8125 C-57.04099775 159.4127012 -60.76352462 156.99475707 -64.4375 153.5 C-65.365625 152.675 -66.29375 151.85 -67.25 151 C-69.69294919 148.20805807 -70.02686071 147.11362579 -70.4375 143.5 C-70.61152344 142.86320312 -70.78554688 142.22640625 -70.96484375 141.5703125 C-74.43186517 128.83524036 -69.74262629 117.44809276 -65.5625 105.5 C-64.47663186 102.35592108 -63.39729141 99.20963387 -62.3203125 96.0625 C-62.06348694 95.31411865 -61.80666138 94.5657373 -61.54205322 93.79467773 C-57.95442372 84.34410135 -57.95442372 84.34410135 -56.4375 74.5 C-55.7775 74.5 -55.1175 74.5 -54.4375 74.5 C-54.26879395 73.91897522 -54.10008789 73.33795044 -53.92626953 72.73931885 C-51.90486373 65.87960333 -49.64863684 59.11761271 -47.3125 52.359375 C-46.73024658 50.67065277 -46.73024658 50.67065277 -46.13623047 48.94781494 C-45.32041489 46.58430341 -44.5035038 44.22116975 -43.68554688 41.85839844 C-42.43690524 38.24828041 -41.19488748 34.63592661 -39.953125 31.0234375 C-39.15665364 28.71861048 -38.35979211 26.41391824 -37.5625 24.109375 C-37.19366699 23.03427673 -36.82483398 21.95917847 -36.44482422 20.85150146 C-31.63638076 7.01672534 -31.63638076 7.01672534 -27.0625 3.25 C-26.49789063 2.77046875 -25.93328125 2.2909375 -25.3515625 1.796875 C-18.3390898 -2.95443303 -7.72574823 -3.42356686 0 0 Z " fill="#05C372" transform="translate(1063.4375,981.5)"/>
<path d="M0 0 C11.73171797 1.53197692 23.83896376 4.1615315 31.53515625 13.953125 C35.70064418 20.31672756 37.38988936 26.31327126 37.375 33.9375 C37.37584595 35.03880249 37.37584595 35.03880249 37.37670898 36.16235352 C37.21837607 44.2252191 35.6296744 52.7406512 32 60 C33.32 60.33 34.64 60.66 36 61 C35.34 62.32 34.68 63.64 34 65 C34.99 64.67 35.98 64.34 37 64 C37.33 64.99 37.66 65.98 38 67 C32.555 67.99 32.555 67.99 27 69 C26.505 70.485 26.505 70.485 26 72 C28.97 71.505 28.97 71.505 32 71 C30.88937302 73.73954656 29.92098455 75.59002586 27.1484375 76.82421875 C25.61903633 77.29168589 24.08619977 77.74800563 22.55078125 78.1953125 C16.94498661 79.96375614 11.46949833 82.05507575 7.875 86.8125 C7.441875 87.8953125 7.441875 87.8953125 7 89 C6.01 88.67 5.02 88.34 4 88 C3.505 87.01 3.505 87.01 3 86 C0.49962266 88.17424117 -0.43628586 89.73045798 -1 93 C-2.32 93 -3.64 93 -5 93 C-4.34 94.11375 -3.68 95.2275 -3 96.375 C-1 99.75 -1 99.75 -1 102 C-10.17286652 102.63019694 -10.17286652 102.63019694 -13.625 100 C-14.305625 99.01 -14.305625 99.01 -15 98 C-12 96 -12 96 -8 96 C-10.49368493 92.7789903 -11.71046418 92.04746489 -15.8125 91.375 C-16.49957031 91.32214844 -17.18664063 91.26929688 -17.89453125 91.21484375 C-21.07491985 90.8903143 -23.95426841 89.95179112 -27 89 C-26.9375 85.6875 -26.9375 85.6875 -26 82 C-22.6875 80.1875 -22.6875 80.1875 -19 79 C-17.65986503 78.34711373 -16.32258472 77.68774405 -15 77 C-15 79.31 -15 81.62 -15 84 C-15.66 84 -16.32 84 -17 84 C-16.34 84.99 -15.68 85.98 -15 87 C-13.515 86.505 -13.515 86.505 -12 86 C-12.33 85.67 -12.66 85.34 -13 85 C-13.04063832 83.33382885 -13.042721 81.66611905 -13 80 C-10.36 80.33 -7.72 80.66 -5 81 C-5 80.01 -5 79.02 -5 78 C-5 76.33333333 -5 74.66666667 -5 73 C-5.391875 73.515625 -5.78375 74.03125 -6.1875 74.5625 C-8 76 -8 76 -10.375 76.0625 C-14.14132169 74.53803646 -15.58697315 72.24035034 -18 69 C-14.38026598 67.68373308 -11.90432869 67 -8 67 C-8 66.01 -8 65.02 -8 64 C-9.0725 63.87625 -10.145 63.7525 -11.25 63.625 C-14.44666333 63.09222278 -16.24091652 62.50162508 -19 61 C-17.55039984 52.0953133 -14.77121008 43.76945945 -11.88696289 35.24926758 C-11.06156336 32.80973169 -10.24590184 30.36710154 -9.43164062 27.92382812 C-8.90421251 26.35137231 -8.37623651 24.77910014 -7.84765625 23.20703125 C-7.48656517 22.12709648 -7.48656517 22.12709648 -7.11817932 21.02534485 C-5.60910621 16.58056576 -3.87471618 12.3029455 -2 8 C-1.55979277 6.53342724 -1.15298139 5.05537993 -0.8125 3.5625 C-0.544375 2.386875 -0.27625 1.21125 0 0 Z " fill="#0BAB66" transform="translate(1475,917)"/>
<path d="M0 0 C2.31 0.66 4.62 1.32 7 2 C7.125 4.375 7.125 4.375 7 7 C6.34 7.66 5.68 8.32 5 9 C5.9590625 9.5259375 5.9590625 9.5259375 6.9375 10.0625 C9.82163832 12.77184206 9.7100822 15.15858911 10 19 C12.39719432 19.67958603 12.39719432 19.67958603 15 20 C15.66 19.34 16.32 18.68 17 18 C19.125 18.375 19.125 18.375 21 19 C21 19.66 21 20.32 21 21 C-5.42245319 33.74209942 -5.42245319 33.74209942 -19 31 C-21.58455285 29.10466125 -21.96275506 28.11173483 -23 25 C-24.98 25.99 -24.98 25.99 -27 27 C-27.6875 24.6875 -27.6875 24.6875 -28 22 C-26.875 20.125 -26.875 20.125 -25 19 C-22.3125 19.3125 -22.3125 19.3125 -20 20 C-19.34 18.68 -18.68 17.36 -18 16 C-16.10424749 15.97278824 -14.20838021 15.95350864 -12.3125 15.9375 C-11.25675781 15.92589844 -10.20101563 15.91429687 -9.11328125 15.90234375 C-6.27589738 15.99134575 -3.7561081 16.35060162 -1 17 C-0.3185177 15.10820797 -0.3185177 15.10820797 0 13 C-0.66 12.34 -1.32 11.68 -2 11 C-1.65238379 7.24574497 -1.0165376 3.63049144 0 0 Z " fill="#05A863" transform="translate(1601,1003)"/>
<path d="M0 0 C2.99220268 1.36370299 5.29026529 2.94908083 7.75 5.125 C8.67039062 5.93324219 8.67039062 5.93324219 9.609375 6.7578125 C10.29773437 7.37269531 10.29773437 7.37269531 11 8 C9.47321792 11.58711703 7.32696443 13.90246546 4.625 16.6875 C-2.05443739 23.87473088 -7.49073988 31.90158734 -13 40 C-16.60064671 39.45897018 -18.9215261 38.64824474 -21.8125 36.4375 C-22.41707031 35.98246094 -23.02164062 35.52742187 -23.64453125 35.05859375 C-24.31548828 34.53458984 -24.31548828 34.53458984 -25 34 C-23.00932021 21.94377027 -8.00293418 8.81174136 0 0 Z " fill="#04C371" transform="translate(1099,926)"/>
<path d="M0 0 C5.23859575 0.50829939 9.0821661 3.20930704 13.4375 5.9375 C14.22431152 6.42387939 15.01112305 6.91025879 15.82177734 7.41137695 C23.10746472 11.96548362 30.09957248 16.885696 37 22 C35.67855892 24.79108116 34.19617639 27.25786389 32.375 29.75 C31.70597656 30.67039062 31.70597656 30.67039062 31.0234375 31.609375 C30.68570312 32.06828125 30.34796875 32.5271875 30 33 C26.87873043 32.38320142 24.74454684 31.35451792 22.12890625 29.55859375 C21.39526855 29.06069336 20.66163086 28.56279297 19.90576172 28.04980469 C19.13248535 27.51774414 18.35920898 26.98568359 17.5625 26.4375 C10.15729253 21.41452388 2.6704352 16.60768192 -5 12 C-3.6404241 7.7794035 -2.05956153 3.9318902 0 0 Z " fill="#04C371" transform="translate(1369,890)"/>
<path d="M0 0 C0.67305018 1.60149886 1.33822227 3.20631029 2 4.8125 C2.37125 5.70582031 2.7425 6.59914063 3.125 7.51953125 C4 10 4 10 4 13 C2.9584375 13.46148438 1.916875 13.92296875 0.84375 14.3984375 C-7.82643532 18.31886912 -15.97199819 22.58309462 -23.90820312 27.84912109 C-28.70930696 31 -28.70930696 31 -32 31 C-33.60546875 29.13671875 -33.60546875 29.13671875 -35.1875 26.6875 C-35.71730469 25.88699219 -36.24710938 25.08648438 -36.79296875 24.26171875 C-38 22 -38 22 -38 19 C-35.83593499 17.44371495 -33.74600769 16.12254271 -31.4375 14.8125 C-30.76799316 14.42247803 -30.09848633 14.03245605 -29.40869141 13.63061523 C-5.81459475 0 -5.81459475 0 0 0 Z " fill="#04C371" transform="translate(1170,879)"/>
<path d="M0 0 C6.74319422 -0.43411122 12.79963002 1.18139047 19.3125 2.8125 C20.38951172 3.07353516 21.46652344 3.33457031 22.57617188 3.60351562 C29.11493345 5.20751226 35.57391959 6.99190618 42 9 C39.125 18.625 39.125 18.625 38 22 C32.48196884 21.33871797 27.29035659 20.09922757 21.9375 18.625 C13.99723032 16.48189507 6.06072815 14.64681543 -2 13 C-1.34 8.71 -0.68 4.42 0 0 Z " fill="#04C371" transform="translate(1291,864)"/>
<path d="M0 0 C1 1 1 1 1.09765625 3.94140625 C1.08605469 5.13636719 1.07445312 6.33132813 1.0625 7.5625 C1.05347656 8.76003906 1.04445313 9.95757813 1.03515625 11.19140625 C1.02355469 12.11824219 1.01195312 13.04507813 1 14 C0.36610352 14.0501123 -0.26779297 14.10022461 -0.92089844 14.15185547 C-16.38277043 15.30156847 -16.38277043 15.30156847 -31.6953125 17.6328125 C-34.1646537 18.02623296 -36.50367453 18.06218604 -39 18 C-41.03165952 13.66579301 -41.52060632 9.71403788 -42 5 C-33.71961269 3.14341092 -25.50259585 1.70233176 -17.0625 0.8125 C-16.28285889 0.72887207 -15.50321777 0.64524414 -14.69995117 0.55908203 C-9.77795383 0.07102813 -4.94640814 -0.16027468 0 0 Z " fill="#05C372" transform="translate(1250,861)"/>
<path d="M0 0 C0.33 0.99 0.66 1.98 1 3 C3.84979639 4.11680706 3.84979639 4.11680706 7 5 C8.34721283 5.63815344 9.68747118 6.29325371 11 7 C10.47731534 9.76276177 9.89130413 12.3260876 9 15 C10.33804687 14.15115234 10.33804687 14.15115234 11.703125 13.28515625 C12.88523996 12.54398893 14.06754148 11.80311909 15.25 11.0625 C15.83652344 10.68931641 16.42304687 10.31613281 17.02734375 9.93164062 C22.7365845 6.37138375 26.31454936 5.87143364 33 6 C33.495 6.99 33.495 6.99 34 8 C31.36 8.99 28.72 9.98 26 11 C26 11.66 26 12.32 26 13 C26.66 13.66 27.32 14.32 28 15 C27.9375 17.875 27.9375 17.875 27 21 C24.4375 23.375 24.4375 23.375 22 25 C23.98 24.67 25.96 24.34 28 24 C27.9375 26.25 27.9375 26.25 27 29 C22.75408492 31.99711653 19.26566187 33.6238813 14 34 C11.95301586 31.95301586 12.29954307 27.69588759 12 25 C8.846632 24.29925156 6.27275026 24 3 24 C2.67 23.01 2.34 22.02 2 21 C-0.00016466 19.79117904 -0.00016466 19.79117904 -2 19 C-2.05394705 16.39555652 -2.09364469 13.79223002 -2.125 11.1875 C-2.14175781 10.44951172 -2.15851563 9.71152344 -2.17578125 8.95117188 C-2.21074628 5.08753574 -2.19397555 3.29096332 0 0 Z " fill="#05A963" transform="translate(1532,1076)"/>
<path d="M0 0 C0.66 0 1.32 0 2 0 C2.103125 0.78375 2.20625 1.5675 2.3125 2.375 C2.77595022 5.33045181 2.77595022 5.33045181 6 7 C6.29296875 9.1640625 6.29296875 9.1640625 6.1875 11.625 C6.16042969 12.44226562 6.13335938 13.25953125 6.10546875 14.1015625 C6.07066406 14.72804688 6.03585937 15.35453125 6 16 C6.66 16.33 7.32 16.66 8 17 C8.33 17.33 8.66 17.66 9 18 C11.32481174 19.01965427 13.65794699 20.02059602 16 21 C15.67 22.98 15.34 24.96 15 27 C16.32 27 17.64 27 19 27 C19 25.68 19 24.36 19 23 C19.66 23.33 20.32 23.66 21 24 C21 24.66 21 25.32 21 26 C25.67461851 26.32613618 28.16674383 25.70582788 32 23 C29.09926819 22.32198966 29.09926819 22.32198966 26 22 C25.34 22.66 24.68 23.32 24 24 C22.35 22.02 20.7 20.04 19 18 C21 16 21 16 23.6015625 15.8046875 C24.59929687 15.82789063 25.59703125 15.85109375 26.625 15.875 C28.12933594 15.90207031 28.12933594 15.90207031 29.6640625 15.9296875 C30.43492188 15.95289063 31.20578125 15.97609375 32 16 C32.39832031 16.83144531 32.79664063 17.66289063 33.20703125 18.51953125 C33.73683594 19.60621094 34.26664063 20.69289063 34.8125 21.8125 C35.59560547 23.43091797 35.59560547 23.43091797 36.39453125 25.08203125 C37.76110117 27.56579702 38.87340101 29.1799378 41 31 C39.55591054 35.69329073 39.55591054 35.69329073 37.1875 37 C34.13901208 37 32.45943339 35.70793985 30 34 C30 34.66 30 35.32 30 36 C30.99 36.66 31.98 37.32 33 38 C33 38.66 33 39.32 33 40 C31.02 40 29.04 40 27 40 C27.99 39.505 27.99 39.505 29 39 C27.81476003 37.39585785 27.81476003 37.39585785 26 36 C23.37429296 35.74930087 23.37429296 35.74930087 21 36 C20.938125 35.21625 20.87625 34.4325 20.8125 33.625 C20.544375 32.75875 20.27625 31.8925 20 31 C17.52363988 29.62533375 17.52363988 29.62533375 15 29 C12.23776722 31.76223278 12.42143709 34.20706617 12 38 C9.69 37.34 7.38 36.68 5 36 C5 34.68 5 33.36 5 32 C4.34 32 3.68 32 3 32 C2.67 32.99 2.34 33.98 2 35 C1.34 35 0.68 35 0 35 C0 34.01 0 33.02 0 32 C0.66 32 1.32 32 2 32 C2 29.03 2 26.06 2 23 C3.32 22.67 4.64 22.34 6 22 C3.2811671 16.23587928 3.2811671 16.23587928 -0.75 11.375 C-2.7730263 7.53125004 -1.19034026 4.00776432 0 0 Z " fill="#04AA63" transform="translate(1525,1110)"/>
<path d="M0 0 C6.70107406 0.94533009 12.38644598 4.85405535 16.6875 10.03125 C20.68989447 16.22543191 22.40973544 22.30299465 22.4375 29.6875 C22.44330078 30.77115845 22.44330078 30.77115845 22.44921875 31.87670898 C22.26380151 40.92449067 19.64093064 49.40754353 17 58 C13.02549037 58.57890654 9.05594066 59.13243716 5.0625 59.5625 C4.29035156 59.64628906 3.51820312 59.73007812 2.72265625 59.81640625 C1.86994141 59.90728516 1.86994141 59.90728516 1 60 C1.165 61.051875 1.33 62.10375 1.5 63.1875 C1 67 1 67 -0.74609375 68.5078125 C-2.18996911 69.36744596 -3.65948613 70.18558983 -5.15234375 70.95703125 C-7.1663995 71.86691342 -7.1663995 71.86691342 -8 74 C-8.66 74 -9.32 74 -10 74 C-10 72.68 -10 71.36 -10 70 C-10.99 69.67 -11.98 69.34 -13 69 C-13 68.34 -13 67.68 -13 67 C-12.37351562 66.91363281 -11.74703125 66.82726562 -11.1015625 66.73828125 C-8.63452282 66.3141372 -6.35533866 65.85294433 -4 65 C-2.53335352 62.58500543 -2.53335352 62.58500543 -2 60 C1 58 1 58 4 58 C4.05418326 55.91695462 4.09287551 53.83350232 4.125 51.75 C4.14820313 50.58984375 4.17140625 49.4296875 4.1953125 48.234375 C4.0103949 45.17213954 3.60823023 43.55797249 2 41 C0.68 41 -0.64 41 -2 41 C-2 39.68 -2 38.36 -2 37 C1.21451269 35.39274365 4.43612536 35.94251815 8 36 C7.34 37.98 6.68 39.96 6 42 C8.33214148 43.20628008 10.49642139 44.1654738 13 45 C13 41.04 13 37.08 13 33 C14.65 33 16.3 33 18 33 C18 36.33333333 18 39.66666667 18 43 C20.70133602 34.2371295 19.80299844 23.70198937 16.25390625 15.3671875 C12.40445221 8.09999388 7.32293157 4.53128034 0 1 C0 0.67 0 0.34 0 0 Z " fill="#05C171" transform="translate(1490,921)"/>
<path d="M0 0 C1.64920633 3.29841266 1.66486707 6.9962313 2.0625 10.625 C2.15337891 11.42679688 2.24425781 12.22859375 2.33789062 13.0546875 C2.56197653 15.03607868 2.7814275 17.01799305 3 19 C2.01 19.495 2.01 19.495 1 20 C-0.4807848 17.0384304 -0.35314037 14.16493705 -0.5625 10.875 C-0.64628906 9.59367187 -0.73007813 8.31234375 -0.81640625 6.9921875 C-0.87699219 6.00476562 -0.93757813 5.01734375 -1 4 C-1.99 4.33 -2.98 4.66 -4 5 C-4.83824695 6.73912655 -4.83824695 6.73912655 -5.375 8.8125 C-6.74276742 12.79406381 -8.22221087 14.88075244 -12 17 C-13.89453125 16.64453125 -13.89453125 16.64453125 -16 16 C-17.41641869 15.70713147 -18.83309694 15.4155161 -20.25 15.125 C-24.69855261 14.15118749 -28.77490128 12.69003949 -33 11 C-30.11470583 5.34038451 -27.33369289 3.33621176 -21.375 1.0625 C-14.21625172 -1.23341822 -7.25425202 -2.41808401 0 0 Z " fill="#04C371" transform="translate(1639,1088)"/>
<path d="M0 0 C0 1.65 0 3.3 0 5 C0.66 5 1.32 5 2 5 C1.67 4.01 1.34 3.02 1 2 C1.78375 2.20625 2.5675 2.4125 3.375 2.625 C4.24125 2.74875 5.1075 2.8725 6 3 C6.66 2.34 7.32 1.68 8 1 C10.125 1.375 10.125 1.375 12 2 C11.01 2.66 10.02 3.32 9 4 C8.67 4.99 8.34 5.98 8 7 C9.65 6.67 11.3 6.34 13 6 C13.99 8.64 14.98 11.28 16 14 C14.5975 14.020625 13.195 14.04125 11.75 14.0625 C10.56664062 14.07990234 10.56664062 14.07990234 9.359375 14.09765625 C7.09308998 14.00385306 5.1711105 13.63241063 3 13 C2.67 13.66 2.34 14.32 2 15 C4.475 15.495 4.475 15.495 7 16 C5 19 5 19 2.75 19.875 C-2.07704908 20.09441132 -5.26641694 17.65609189 -8.7734375 14.51953125 C-9.63195313 13.62621094 -10.49046875 12.73289062 -11.375 11.8125 C-12.24898437 10.91144531 -13.12296875 10.01039062 -14.0234375 9.08203125 C-14.67570312 8.39496094 -15.32796875 7.70789062 -16 7 C-13.75380873 4.49546085 -11.63373662 3.16425844 -8.5625 1.8125 C-7.41974609 1.29623047 -7.41974609 1.29623047 -6.25390625 0.76953125 C-4 0 -4 0 0 0 Z " fill="#04A862" transform="translate(1469,1022)"/>
<path d="M0 0 C3.00152317 1.32681887 4.88696959 2.6986106 7.015625 5.1875 C7.54414062 5.80367187 8.07265625 6.41984375 8.6171875 7.0546875 C9.15601563 7.69664062 9.69484375 8.33859375 10.25 9 C10.80429688 9.64195312 11.35859375 10.28390625 11.9296875 10.9453125 C16 15.73745382 16 15.73745382 16 18 C14.13671875 19.7265625 14.13671875 19.7265625 11.6875 21.625 C10.88699219 22.25664063 10.08648438 22.88828125 9.26171875 23.5390625 C7 25 7 25 4 25 C1.84375 22.69921875 1.84375 22.69921875 -0.5 19.6875 C-3.44565298 15.82795675 -3.44565298 15.82795675 -6.84375 12.39453125 C-8 11 -8 11 -7.91015625 9.046875 C-6.79956953 6.5492465 -5.41964574 5.1240287 -3.4375 3.25 C-2.79683594 2.63640625 -2.15617187 2.0228125 -1.49609375 1.390625 C-1.00238281 0.93171875 -0.50867187 0.4728125 0 0 Z " fill="#04C371" transform="translate(1435,940)"/>
<path d="M0 0 C1.64611422 2.33921494 1.54592561 3.89178024 1.1875 6.6875 C-1.39708796 9.27208796 -2.87614539 9.13901615 -6.4765625 9.5390625 C-8.15878906 9.73242188 -8.15878906 9.73242188 -9.875 9.9296875 C-11.6384375 10.11917969 -11.6384375 10.11917969 -13.4375 10.3125 C-14.62085938 10.4465625 -15.80421875 10.580625 -17.0234375 10.71875 C-19.95234634 11.04943326 -22.8819235 11.37199673 -25.8125 11.6875 C-26.1425 10.3675 -26.4725 9.0475 -26.8125 7.6875 C-25.3125 6.0625 -25.3125 6.0625 -22.8125 4.6875 C-19.98086197 5.02794503 -17.55263964 5.81978911 -14.8125 6.6875 C-14.1525 5.0375 -13.4925 3.3875 -12.8125 1.6875 C-13.53695313 1.71070313 -14.26140625 1.73390625 -15.0078125 1.7578125 C-20.35828244 1.85768794 -24.80696082 1.85205748 -29.8125 -0.3125 C-29.8125 -0.9725 -29.8125 -1.6325 -29.8125 -2.3125 C-5.62863339 -4.07590694 -5.62863339 -4.07590694 0 0 Z " fill="#05AB64" transform="translate(1561.8125,978.3125)"/>
<path d="M0 0 C1.15570704 3.46712111 1.32835293 6.5414956 1.5625 10.1875 C1.64628906 11.45980469 1.73007813 12.73210937 1.81640625 14.04296875 C1.87699219 15.01878906 1.93757813 15.99460937 2 17 C-1 19 -1 19 -3.125 18.75 C-5 18 -5 18 -6 16 C-9.16115776 17.36983503 -9.9927092 17.9890638 -12 21 C-14.625 21.1875 -14.625 21.1875 -17 21 C-17.33 20.34 -17.66 19.68 -18 19 C-17.67 18.01 -17.34 17.02 -17 16 C-18.65 16.66 -20.3 17.32 -22 18 C-21.67 18.33 -21.34 18.66 -21 19 C-20.95936168 20.66617115 -20.957279 22.33388095 -21 24 C-23.01822917 23.96744792 -25.03645833 23.93489583 -27.0546875 23.90234375 C-29.08185404 23.87350758 -29.08185404 23.87350758 -31 25 C-29.39452647 20.32953155 -27.30409263 15.7095557 -24 12 C-20.375 10.875 -20.375 10.875 -17 11 C-16.01 11.66 -15.02 12.32 -14 13 C-11.48250172 13.14768913 -11.48250172 13.14768913 -9 12 C-6.74160643 9.16087665 -5.21879243 6.57915644 -3.9375 3.1875 C-3.628125 2.465625 -3.31875 1.74375 -3 1 C-2.01 0.67 -1.02 0.34 0 0 Z " fill="#04A761" transform="translate(1638,1091)"/>
<path d="M0 0 C0 1.98 0 3.96 0 6 C0.90363281 5.566875 1.80726562 5.13375 2.73828125 4.6875 C3.91777344 4.130625 5.09726563 3.57375 6.3125 3 C7.48425781 2.443125 8.65601563 1.88625 9.86328125 1.3125 C13 0 13 0 16 0 C15.2855071 4.67009127 12.62274746 6.70292107 9.14453125 9.6484375 C7 11 7 11 3.5 10.9375 C2.675 10.628125 1.85 10.31875 1 10 C-1.50298434 12.93828597 -2.46930939 15.17902761 -3 19 C-6.96762024 16.13449649 -9.65855818 13.32266181 -12 9 C-11.84375 6.984375 -11.84375 6.984375 -11 5 C-9.2578125 3.515625 -9.2578125 3.515625 -7.125 2.25 C-6.42632813 1.82203125 -5.72765625 1.3940625 -5.0078125 0.953125 C-3 0 -3 0 0 0 Z " fill="#08A964" transform="translate(1655,1002)"/>
<path d="M0 0 C1.04414062 0.46986328 1.04414062 0.46986328 2.109375 0.94921875 C2.81578125 1.25472656 3.5221875 1.56023437 4.25 1.875 C4.78109375 2.12636719 5.3121875 2.37773438 5.859375 2.63671875 C4.52734375 4.15625 4.52734375 4.15625 2.859375 5.63671875 C0.171875 5.32421875 0.171875 5.32421875 -2.140625 4.63671875 C-3.130625 6.12171875 -3.130625 6.12171875 -4.140625 7.63671875 C-1.665625 8.13171875 -1.665625 8.13171875 0.859375 8.63671875 C0.859375 9.62671875 0.859375 10.61671875 0.859375 11.63671875 C0.199375 11.63671875 -0.460625 11.63671875 -1.140625 11.63671875 C-1.140625 12.29671875 -1.140625 12.95671875 -1.140625 13.63671875 C-1.800625 13.63671875 -2.460625 13.63671875 -3.140625 13.63671875 C-3.140625 12.64671875 -3.140625 11.65671875 -3.140625 10.63671875 C-6.22451767 11.30712745 -6.22451767 11.30712745 -7.328125 13.57421875 C-8.26279984 15.57739347 -8.26279984 15.57739347 -8.140625 17.63671875 C-7.480625 17.63671875 -6.820625 17.63671875 -6.140625 17.63671875 C-6.470625 18.62671875 -6.800625 19.61671875 -7.140625 20.63671875 C-9.390625 21.32421875 -9.390625 21.32421875 -12.140625 21.63671875 C-14.140625 20.26171875 -14.140625 20.26171875 -16.140625 18.63671875 C-18.78997322 17.92238754 -18.78997322 17.92238754 -21.140625 17.63671875 C-19.0271092 12.56866875 -16.66082729 10.10652828 -12.203125 6.94921875 C-11.16285156 6.20285156 -10.12257813 5.45648437 -9.05078125 4.6875 C-7.61025391 3.67236328 -7.61025391 3.67236328 -6.140625 2.63671875 C-5.44324219 2.02570313 -4.74585938 1.4146875 -4.02734375 0.78515625 C-2.140625 -0.36328125 -2.140625 -0.36328125 0 0 Z " fill="#04A962" transform="translate(1607.140625,1098.36328125)"/>
<path d="M0 0 C0.33 0.99 0.66 1.98 1 3 C1.886875 2.731875 2.77375 2.46375 3.6875 2.1875 C7 2 7 2 9.6875 4 C12.79975422 8.03751899 15 11.76117624 15 17 C8.25 18 8.25 18 6 18 C6 18.66 6 19.32 6 20 C4.35 20.33 2.7 20.66 1 21 C2.875 14.125 2.875 14.125 4 13 C5.99958364 12.95919217 8.00045254 12.95745644 10 13 C10 12.34 10 11.68 10 11 C6.7 11 3.4 11 0 11 C-0.33 11.99 -0.66 12.98 -1 14 C-1.6875 12.25 -1.6875 12.25 -2 10 C-0.5625 7.75 -0.5625 7.75 1 6 C0.2575 6.350625 -0.485 6.70125 -1.25 7.0625 C-4.1322726 8.04509293 -5.21176345 8.0326802 -8 7 C-7.625 4.0625 -7.625 4.0625 -7 1 C-4.53721199 -0.231394 -2.7204945 -0.07159196 0 0 Z " fill="#04A962" transform="translate(1375,1055)"/>
<path d="M0 0 C10.75748273 5.00920952 10.75748273 5.00920952 14 9 C14.721875 9.78375 15.44375 10.5675 16.1875 11.375 C18.22219244 14.32179595 18.6714753 16.46835952 19 20 C17.68 20 16.36 20 15 20 C15 19.01 15 18.02 15 17 C12.58354218 16.83312552 12.58354218 16.83312552 10 17 C9.34 17.66 8.68 18.32 8 19 C3.44444444 18.44444444 3.44444444 18.44444444 2 17 C1.896875 15.88625 1.79375 14.7725 1.6875 13.625 C1.36031376 9.95765714 1.36031376 9.95765714 -1.0625 8.0625 C-1.701875 7.711875 -2.34125 7.36125 -3 7 C-2.34 6.34 -1.68 5.68 -1 5 C-0.35232207 2.42938689 -0.35232207 2.42938689 0 0 Z " fill="#1AC67C" transform="translate(1608,1005)"/>
<path d="M0 0 C0.99 0 1.98 0 3 0 C3.33 0.66 3.66 1.32 4 2 C4.99 1.67 5.98 1.34 7 1 C8.125 5.75 8.125 5.75 7 8 C6.34 8 5.68 8 5 8 C4.31506627 10.85778033 4.31506627 10.85778033 4 14 C4.99 15.485 4.99 15.485 6 17 C5.625 19.6875 5.625 19.6875 5 22 C4.34 22 3.68 22 3 22 C3 21.34 3 20.68 3 20 C2.34 20 1.68 20 1 20 C1 19.34 1 18.68 1 18 C-0.32 18.33 -1.64 18.66 -3 19 C-3.33 18.34 -3.66 17.68 -4 17 C-4.99 17.33 -5.98 17.66 -7 18 C-8.25664978 15.09399739 -9 13.20395416 -9 10 C-8.01 10 -7.02 10 -6 10 C-6 9.34 -6 8.68 -6 8 C-6.66 7.67 -7.32 7.34 -8 7 C-7.67 5.35 -7.34 3.7 -7 2 C-6.34 2.33 -5.68 2.66 -5 3 C-5 3.66 -5 4.32 -5 5 C-3.68 5.33 -2.36 5.66 -1 6 C-1 4.68 -1 3.36 -1 2 C-0.67 1.34 -0.34 0.68 0 0 Z " fill="#04AD64" transform="translate(1114,1032)"/>
<path d="M0 0 C4.1200342 1.33295224 6.21217006 2.91253474 8.875 6.3125 C9.49117187 7.07175781 10.10734375 7.83101562 10.7421875 8.61328125 C12 11 12 11 11.6953125 13.79296875 C11.46585938 14.52128906 11.23640625 15.24960938 11 16 C10.01 16 9.02 16 8 16 C8.33 16.99 8.66 17.98 9 19 C4.25 19.125 4.25 19.125 2 18 C2 14.37 2 10.74 2 7 C1.01 7 0.02 7 -1 7 C-1.33 7.66 -1.66 8.32 -2 9 C-2.66 7.02 -3.32 5.04 -4 3 C-3.01 3 -2.02 3 -1 3 C-0.67 2.01 -0.34 1.02 0 0 Z " fill="#04AE65" transform="translate(1696,1071)"/>
<path d="M0 0 C1.9375 1 1.9375 1 3.1875 4.0625 C3.435 5.031875 3.6825 6.00125 3.9375 7 C2.9475 7.33 1.9575 7.66 0.9375 8 C1.03289062 8.86882812 1.12828125 9.73765625 1.2265625 10.6328125 C1.33742188 11.78523438 1.44828125 12.93765625 1.5625 14.125 C1.67851563 15.26195312 1.79453125 16.39890625 1.9140625 17.5703125 C1.93862837 21.16511799 1.25917811 23.680671 -0.0625 27 C-1.7125 26.01 -3.3625 25.02 -5.0625 24 C-3.3125 20.125 -3.3125 20.125 -1.0625 19 C-0.7325 18.01 -0.4025 17.02 -0.0625 16 C-2.3725 16.33 -4.6825 16.66 -7.0625 17 C-7.3925 15.35 -7.7225 13.7 -8.0625 12 C-7.49660156 11.66226562 -6.93070313 11.32453125 -6.34765625 10.9765625 C-5.61417969 10.53054688 -4.88070313 10.08453125 -4.125 9.625 C-3.39410156 9.18414063 -2.66320313 8.74328125 -1.91015625 8.2890625 C0.07522272 7.1226016 0.07522272 7.1226016 0.9375 5 C-0.2690625 4.814375 -0.2690625 4.814375 -1.5 4.625 C-2.345625 4.41875 -3.19125 4.2125 -4.0625 4 C-4.3925 3.34 -4.7225 2.68 -5.0625 2 C-2.0625 0 -2.0625 0 0 0 Z " fill="#04AA63" transform="translate(1655.0625,1048)"/>
<path d="M0 0 C0.33 1.32 0.66 2.64 1 4 C2.32 4.33 3.64 4.66 5 5 C4.54663921 9.87362847 3.2910841 12.39042389 0 16 C-4.875 15.125 -4.875 15.125 -6 14 C-6.45459858 11.34536879 -6.70243238 8.67810862 -7 6 C-6.360625 5.87625 -5.72125 5.7525 -5.0625 5.625 C-4.381875 5.41875 -3.70125 5.2125 -3 5 C-2.67 4.34 -2.34 3.68 -2 3 C-1.34 3 -0.68 3 0 3 C0 2.01 0 1.02 0 0 Z " fill="#04A862" transform="translate(1663,1066)"/>
<path d="M0 0 C0.99 0.66 1.98 1.32 3 2 C3 2.66 3 3.32 3 4 C3.99 3.34 4.98 2.68 6 2 C6.99 2 7.98 2 9 2 C8.6875 4.875 8.6875 4.875 8 8 C7.01 8.66 6.02 9.32 5 10 C5 9.34 5 8.68 5 8 C3.68 8 2.36 8 1 8 C0.34 9.65 -0.32 11.3 -1 13 C-1.33 12.34 -1.66 11.68 -2 11 C-2.66 11 -3.32 11 -4 11 C-4 11.66 -4 12.32 -4 13 C-4.66 13 -5.32 13 -6 13 C-6.33 13.66 -6.66 14.32 -7 15 C-7.66 13.35 -8.32 11.7 -9 10 C-8.34 10 -7.68 10 -7 10 C-7.33 9.01 -7.66 8.02 -8 7 C-6.125 5.9375 -6.125 5.9375 -4 5 C-3.34 5.33 -2.68 5.66 -2 6 C-1.34 4.02 -0.68 2.04 0 0 Z " fill="#04AD65" transform="translate(1156,1100)"/>
<path d="M0 0 C2.76193507 0.75325502 4.99852039 1.47411224 7.4375 2.9375 C7.08870368 6.19293229 6.41616739 6.95623107 3.875 9.1875 C3.070625 9.765 2.26625 10.3425 1.4375 10.9375 C0.7775 10.6075 0.1175 10.2775 -0.5625 9.9375 C-1.1875 7.375 -1.1875 7.375 -1.5625 4.9375 C-2.14 5.22625 -2.7175 5.515 -3.3125 5.8125 C-6.4375 7.375 -6.4375 7.375 -9.5625 8.9375 C-9.22779544 5.92515893 -8.30141115 4.59194123 -6.4375 2.125 C-3.5625 -0.0625 -3.5625 -0.0625 0 0 Z " fill="#04A963" transform="translate(1453.5625,1111.0625)"/>
<path d="M0 0 C0.33 0.66 0.66 1.32 1 2 C1.66 2.33 2.32 2.66 3 3 C0.31326607 6.68182056 -2.07753253 8.74458121 -6 11 C-7.36984198 12.29579647 -8.7151049 13.61992749 -10 15 C-10.66 14.34 -11.32 13.68 -12 13 C-11.67 12.34 -11.34 11.68 -11 11 C-12.65 11.66 -14.3 12.32 -16 13 C-16 12.34 -16 11.68 -16 11 C-14.68 10.34 -13.36 9.68 -12 9 C-12.33 8.01 -12.66 7.02 -13 6 C-9.96474514 3.97649676 -8.80573798 3.67875982 -5.3125 3.375 C-4.50425781 3.30023437 -3.69601562 3.22546875 -2.86328125 3.1484375 C-2.24839844 3.09945313 -1.63351562 3.05046875 -1 3 C-0.67 2.01 -0.34 1.02 0 0 Z " fill="#04AB63" transform="translate(1524,1084)"/>
<path d="M0 0 C-0.804375 0.28875 -1.60875 0.5775 -2.4375 0.875 C-5.1326468 1.73262568 -5.1326468 1.73262568 -6 4 C-4.35 3.34 -2.7 2.68 -1 2 C-1 2.99 -1 3.98 -1 5 C0.32 5.33 1.64 5.66 3 6 C0.74174837 8.04818171 -0.4043697 8.99072227 -3.5078125 9.0390625 C-4.37148437 8.90242188 -5.23515625 8.76578125 -6.125 8.625 C-9.68906163 7.94349871 -9.68906163 7.94349871 -13 9 C-12.30058404 5.85262818 -11.23921302 2.97411124 -10 0 C-3.375 -1.125 -3.375 -1.125 0 0 Z " fill="#04AA63" transform="translate(1494,1114)"/>
<path d="M0 0 C0.66 0 1.32 0 2 0 C2 2.31 2 4.62 2 7 C2.99 6.67 3.98 6.34 5 6 C5 8.97 5 11.94 5 15 C6.65 14.34 8.3 13.68 10 13 C10 13.99 10 14.98 10 16 C9.34 16 8.68 16 8 16 C7.67 17.98 7.34 19.96 7 22 C5 19 5 19 5 17 C2.36 17 -0.28 17 -3 17 C-3 16.34 -3 15.68 -3 15 C-1.02 14.67 0.96 14.34 3 14 C2.525625 13.21625 2.05125 12.4325 1.5625 11.625 C0.66101977 10.11051322 -0.21179485 8.5764103 -1 7 C-0.34 7 0.32 7 1 7 C0.67 4.69 0.34 2.38 0 0 Z " fill="#04AF65" transform="translate(1237,1003)"/>
<path d="M0 0 C0.66 0 1.32 0 2 0 C2 1.32 2 2.64 2 4 C4.97 4.495 4.97 4.495 8 5 C8 5.66 8 6.32 8 7 C8.66 7 9.32 7 10 7 C10 7.66 10 8.32 10 9 C3.59370576 9.20852314 -1.92972642 9.1583195 -8 7 C-8 6.34 -8 5.68 -8 5 C-6.865625 4.731875 -5.73125 4.46375 -4.5625 4.1875 C-3.386875 3.795625 -2.21125 3.40375 -1 3 C-0.67 2.01 -0.34 1.02 0 0 Z " fill="#18AB6C" transform="translate(1414,993)"/>
<path d="M0 0 C-1.23631515 7.27659771 -2.29794663 12.55846329 -8.37890625 17.109375 C-10 18 -10 18 -12 18 C-12 16 -12 16 -10.5 14.375 C-10.005 13.92125 -9.51 13.4675 -9 13 C-11.475 12.01 -11.475 12.01 -14 11 C-13.34 10.01 -12.68 9.02 -12 8 C-11.13375 8.2784375 -11.13375 8.2784375 -10.25 8.5625 C-7.79307475 9.04023546 -6.35602466 8.75729364 -4 8 C-4.185625 7.401875 -4.37125 6.80375 -4.5625 6.1875 C-5 4 -5 4 -4 1 C-2 0 -2 0 0 0 Z " fill="#04B066" transform="translate(1498,996)"/>
<path d="M0 0 C11.0765572 1.48107593 21.46203312 3.26313231 32 7 C30.4375 8.125 30.4375 8.125 28 9 C24.75390625 8.21875 24.75390625 8.21875 21 7 C17.64394059 6.27959371 14.25542591 5.72692764 10.87304688 5.14453125 C6.76913853 4.41126809 2.91998496 3.41877771 -1 2 C-0.67 1.34 -0.34 0.68 0 0 Z " fill="#0EAE6A" transform="translate(1290,1069)"/>
<path d="M0 0 C1.58706088 3.17412177 1.28477127 6.53638667 1 10 C0 13 0 13 -1 15 C-3.16070464 12.83929536 -4.43303362 10.61161063 -6 8 C-6.66 7.34 -7.32 6.68 -8 6 C-7.01 6 -6.02 6 -5 6 C-5.33 4.35 -5.66 2.7 -6 1 C-4 0 -4 0 0 0 Z " fill="#04AE65" transform="translate(1232,1120)"/>
<path d="M0 0 C0.8353125 1.1446875 0.8353125 1.1446875 1.6875 2.3125 C3.97242645 4.96795507 6.0135612 6.2579107 9 8 C9 8.66 9 9.32 9 10 C4.71 10 0.42 10 -4 10 C-4.25 6.6875 -4.25 6.6875 -4 3 C-2 1.0625 -2 1.0625 0 0 Z " fill="#04AA63" transform="translate(1425,1117)"/>
<path d="M0 0 C0.75 2.1875 0.75 2.1875 1 5 C-1.11611635 8.32532569 -2.22730267 9.74243422 -6 11 C-6 10.34 -6 9.68 -6 9 C-7.32 8.67 -8.64 8.34 -10 8 C-9.9375 6.25 -9.9375 6.25 -9 4 C-6.29950956 1.99159505 -3.44873267 0 0 0 Z " fill="#13AA6A" transform="translate(1602,1069)"/>
<path d="M0 0 C-0.99 1.98 -1.98 3.96 -3 6 C-1.35 6.33 0.3 6.66 2 7 C-0.64738916 8.4606285 -1.89448334 9 -5 9 C-5.33 9.66 -5.66 10.32 -6 11 C-6.66 11 -7.32 11 -8 11 C-9.49821059 7.62902617 -10 5.79557881 -10 2 C-8.71211992 1.46987262 -7.41953322 0.9511671 -6.125 0.4375 C-5.40570312 0.14746094 -4.68640625 -0.14257812 -3.9453125 -0.44140625 C-2 -1 -2 -1 0 0 Z " fill="#04AA63" transform="translate(1644,1043)"/>
<path d="M0 0 C0.99 0.33 1.98 0.66 3 1 C3 1.99 3 2.98 3 4 C3.99 4 4.98 4 6 4 C5.67 2.68 5.34 1.36 5 0 C7.96175123 0.61277612 9.38058783 1.25372522 12 3 C14.15274948 2.69159401 14.15274948 2.69159401 16 2 C15.75 3.875 15.75 3.875 15 6 C13.3125 7.21875 13.3125 7.21875 11 8 C8.203125 7.5390625 8.203125 7.5390625 5.25 6.625 C4.26515625 6.32851562 3.2803125 6.03203125 2.265625 5.7265625 C1.51796875 5.48679687 0.7703125 5.24703125 0 5 C0 3.35 0 1.7 0 0 Z " fill="#04AB63" transform="translate(1463,1113)"/>
<path d="M0 0 C1.32 0 2.64 0 4 0 C3.34 4.62 2.68 9.24 2 14 C0.68 14 -0.64 14 -2 14 C-2.12375 13.195625 -2.2475 12.39125 -2.375 11.5625 C-2.684375 10.2940625 -2.684375 10.2940625 -3 9 C-3.66 8.67 -4.32 8.34 -5 8 C-2 6 -2 6 1 6 C1 5.34 1 4.68 1 4 C0.01 3.67 -0.98 3.34 -2 3 C-1.34 2.01 -0.68 1.02 0 0 Z " fill="#04A962" transform="translate(1594,1002)"/>
<path d="M0 0 C0.66 0.33 1.32 0.66 2 1 C2 2.65 2 4.3 2 6 C2.66 6.33 3.32 6.66 4 7 C3.49396008 9.16874252 3.00016187 10.99967627 2 13 C-4.15234375 12.4140625 -4.15234375 12.4140625 -6 12 C-6.33 11.34 -6.66 10.68 -7 10 C-6.01 9.67 -5.02 9.34 -4 9 C-3.01788795 7.16696677 -3.01788795 7.16696677 -2.375 5 C-1.06951872 1.06951872 -1.06951872 1.06951872 0 0 Z " fill="#04AB63" transform="translate(1256,1103)"/>
<path d="M0 0 C2.875 1.125 2.875 1.125 6 3 C7.375 6.1875 7.375 6.1875 8 9 C5.1875 9.625 5.1875 9.625 2 10 C1.01 9.34 0.02 8.68 -1 8 C-1 7.34 -1 6.68 -1 6 C-1.99 5.67 -2.98 5.34 -4 5 C-3.67 4.34 -3.34 3.68 -3 3 C-2.01 3 -1.02 3 0 3 C0 2.01 0 1.02 0 0 Z " fill="#04AC64" transform="translate(1646,1119)"/>
<path d="M0 0 C0.04241723 2.33294775 0.04092937 4.66702567 0 7 C-1 8 -1 8 -3.5625 8.0625 C-4.366875 8.041875 -5.17125 8.02125 -6 8 C-6 7.01 -6 6.02 -6 5 C-8.475 4.01 -8.475 4.01 -11 3 C-8.21756596 -1.17365106 -4.53441502 -0.22300402 0 0 Z " fill="#04AA63" transform="translate(1579,1003)"/>
<path d="M0 0 C1.5471219 2.4571936 2.04484402 3.632279 1.6875 6.5625 C1.17232879 8.38901612 0.60013019 10.19960942 0 12 C-1.98 11.34 -3.96 10.68 -6 10 C-6.375 7.25 -6.375 7.25 -6 4 C-3 1.625 -3 1.625 0 0 Z " fill="#04AB64" transform="translate(1397,1104)"/>
<path d="M0 0 C0.66 0 1.32 0 2 0 C2.2475 0.639375 2.495 1.27875 2.75 1.9375 C3.81562433 4.18741541 3.81562433 4.18741541 6.125 4.75 C6.74375 4.8325 7.3625 4.915 8 5 C6.63016497 8.16115776 6.0109362 8.9927092 3 11 C2.01 12.485 2.01 12.485 1 14 C-0.16191874 11.67616253 -0.51446385 9.54906476 -1 7 C-1.226875 6.29875 -1.45375 5.5975 -1.6875 4.875 C-2 3 -2 3 0 0 Z " fill="#04AA63" transform="translate(1299,1054)"/>
<path d="M0 0 C0.66 0 1.32 0 2 0 C2.33 0.66 2.66 1.32 3 2 C4.36125 1.7525 4.36125 1.7525 5.75 1.5 C9 1 9 1 13 1 C13 2.32 13 3.64 13 5 C11.35 5.66 9.7 6.32 8 7 C7.67 6.67 7.34 6.34 7 6 C5.32115762 5.6068352 3.63149955 5.25914548 1.9375 4.9375 C1.01839844 4.76089844 0.09929687 4.58429687 -0.84765625 4.40234375 C-1.55792969 4.26957031 -2.26820312 4.13679687 -3 4 C-2.67 3.34 -2.34 2.68 -2 2 C-1.34 2 -0.68 2 0 2 C0 1.34 0 0.68 0 0 Z " fill="#04AA63" transform="translate(1437,981)"/>
<path d="M0 0 C0.9075 0.103125 1.815 0.20625 2.75 0.3125 C2.75 2.5625 2.75 2.5625 1.75 5.3125 C-1.24014453 7.36945657 -4.563902 9.3125 -8.25 9.3125 C-7.50041887 4.25282735 -5.28215175 0.50789921 0 0 Z " fill="#2DB77C" transform="translate(1625.25,1027.6875)"/>
<path d="M0 0 C0.5775 0.28875 1.155 0.5775 1.75 0.875 C2.08 1.865 2.41 2.855 2.75 3.875 C2.20730469 4.06835938 1.66460938 4.26171875 1.10546875 4.4609375 C0.03232422 4.85152344 0.03232422 4.85152344 -1.0625 5.25 C-1.77019531 5.50523437 -2.47789063 5.76046875 -3.20703125 6.0234375 C-5.49773359 6.9015769 -5.49773359 6.9015769 -8.25 8.875 C-10.4375 8.5 -10.4375 8.5 -12.25 7.875 C-4.56098431 -0.25338802 -4.56098431 -0.25338802 0 0 Z " fill="#04AA63" transform="translate(1410.25,1011.125)"/>
<path d="M0 0 C0.66 0 1.32 0 2 0 C2 0.99 2 1.98 2 3 C2.66 3 3.32 3 4 3 C3.42655063 5.86724686 3.1385485 6.8614515 1 9 C1.66 9.33 2.32 9.66 3 10 C3 10.99 3 11.98 3 13 C3.66 13 4.32 13 5 13 C5 13.66 5 14.32 5 15 C4.34 15 3.68 15 3 15 C2.67 15.99 2.34 16.98 2 18 C-0.12312056 14.49035173 -0.41040392 11.3690049 -0.6875 7.3125 C-0.77386719 6.15363281 -0.86023437 4.99476562 -0.94921875 3.80078125 C-0.96597656 2.87652344 -0.98273438 1.95226563 -1 1 C-0.67 0.67 -0.34 0.34 0 0 Z " fill="#04AB63" transform="translate(1041,1048)"/>
<path d="M0 0 C0.96891192 5.37305699 0.96891192 5.37305699 1 8 C-0.4375 10 -0.4375 10 -2 11 C-2.66 9.68 -3.32 8.36 -4 7 C-6.31 7.33 -8.62 7.66 -11 8 C-8.45535894 4.37878002 -4.91273426 0 0 0 Z " fill="#04AA63" transform="translate(1728,1018)"/>
<path d="M0 0 C0.99 0.33 1.98 0.66 3 1 C3 1.66 3 2.32 3 3 C4.32 2.67 5.64 2.34 7 2 C7 3.32 7 4.64 7 6 C6 7 6 7 3.93359375 7.09765625 C3.10988281 7.08605469 2.28617188 7.07445312 1.4375 7.0625 C0.61121094 7.05347656 -0.21507812 7.04445313 -1.06640625 7.03515625 C-1.70449219 7.02355469 -2.34257813 7.01195312 -3 7 C-1.125 1.125 -1.125 1.125 0 0 Z " fill="#04AA63" transform="translate(1465,1044)"/>
<path d="M0 0 C0.66 0 1.32 0 2 0 C2 0.99 2 1.98 2 3 C2.99 2.67 3.98 2.34 5 2 C5 2.66 5 3.32 5 4 C4.360625 4.103125 3.72125 4.20625 3.0625 4.3125 C2.381875 4.539375 1.70125 4.76625 1 5 C0.67 5.99 0.34 6.98 0 8 C-2.0625 9.1875 -2.0625 9.1875 -4 10 C-4.66 7.69 -5.32 5.38 -6 3 C-5 2 -5 2 -2.4375 1.9375 C-1.2309375 1.9684375 -1.2309375 1.9684375 0 2 C0 1.34 0 0.68 0 0 Z " fill="#04AE65" transform="translate(1241,1126)"/>
<path d="M0 0 C1.32 0.66 2.64 1.32 4 2 C2.6696875 2.309375 2.6696875 2.309375 1.3125 2.625 C-1.94331121 3.9764688 -2.6264944 4.48522936 -4.625 7.125 C-5.40875 8.07375 -6.1925 9.0225 -7 10 C-8.32 10 -9.64 10 -11 10 C-11.33 11.32 -11.66 12.64 -12 14 C-13.65 14 -15.3 14 -17 14 C-11.93108353 8.60405667 -6.15461093 4.10307395 0 0 Z " fill="#04C070" transform="translate(1605,1098)"/>
<path d="M0 0 C7.00435592 0.6258645 14.00399099 1.28674095 21 2 C21 2.33 21 2.66 21 3 C14.03220597 4.32719886 7.07011089 4.08825381 0 4 C0 2.68 0 1.36 0 0 Z " fill="#04AE65" transform="translate(1426,998)"/>
<path d="M0 0 C1.5625 1.1875 1.5625 1.1875 3 3 C2.6875 5.6875 2.6875 5.6875 2 8 C0.02 8.66 -1.96 9.32 -4 10 C-4.25 6.6875 -4.25 6.6875 -4 3 C-2 1.0625 -2 1.0625 0 0 Z " fill="#04A862" transform="translate(1621,1120)"/>
<path d="M0 0 C1.9375 0.3125 1.9375 0.3125 4 1 C4.33 1.99 4.66 2.98 5 4 C4.01 4.33 3.02 4.66 2 5 C1.01 6.5159375 1.01 6.5159375 0 8.0625 C-0.66 9.031875 -1.32 10.00125 -2 11 C-2.99 11 -3.98 11 -5 11 C-4.34 10.67 -3.68 10.34 -3 10 C-3.0928125 8.63875 -3.0928125 8.63875 -3.1875 7.25 C-2.98327924 3.71017358 -2.35448165 2.55068845 0 0 Z " fill="#04AC64" transform="translate(1378,1039)"/>
<path d="M0 0 C4.59363599 1.531212 6.3813115 5.07196724 9 9 C9 9.99 9 10.98 9 12 C7.68 12 6.36 12 5 12 C5 11.01 5 10.02 5 9 C4.34 9 3.68 9 3 9 C3 8.34 3 7.68 3 7 C1.68 6.67 0.36 6.34 -1 6 C-0.34 5.67 0.32 5.34 1 5 C0.67 3.35 0.34 1.7 0 0 Z " fill="#04AC64" transform="translate(1214,1134)"/>
<path d="M0 0 C1.8125 0.25 1.8125 0.25 4 1 C4.495 1.680625 4.99 2.36125 5.5 3.0625 C6.2425 4.0215625 6.2425 4.0215625 7 5 C8.32 5 9.64 5 11 5 C10.67 5.99 10.34 6.98 10 8 C3.375 8.25 3.375 8.25 0 6 C-0.1875 2.875 -0.1875 2.875 0 0 Z " fill="#04AB63" transform="translate(1311,1095)"/>
<path d="M0 0 C0 3 0 3 -2 5.1875 C-2.66 5.785625 -3.32 6.38375 -4 7 C-2.96593327 8.25949049 -2.96593327 8.25949049 -0.71484375 8.09765625 C0.20167969 8.08605469 1.11820313 8.07445312 2.0625 8.0625 C2.98160156 8.05347656 3.90070313 8.04445313 4.84765625 8.03515625 C5.55792969 8.02355469 6.26820312 8.01195312 7 8 C4.43342872 10.56657128 3.12712631 10.34000672 -0.4375 10.5625 C-3.57963901 10.76751306 -5.99894319 10.99964773 -9 12 C-7.60090738 7.54834166 -5.39864635 5.14374788 -2 2 C-1.34 1.34 -0.68 0.68 0 0 Z " fill="#04AF66" transform="translate(1216,1004)"/>
<path d="M0 0 C1.875 0.125 1.875 0.125 4 1 C5.125 3.9375 5.125 3.9375 6 7 C6.66 7.66 7.32 8.32 8 9 C4.52674819 10.1577506 1.63932552 10.06866652 -2 10 C-1.484375 9.46375 -0.96875 8.9275 -0.4375 8.375 C1.32605545 5.99503501 1.32605545 5.99503501 0.6875 2.75 C0.460625 1.8425 0.23375 0.935 0 0 Z " fill="#0FAC69" transform="translate(1700,1000)"/>
<path d="M0 0 C2.22998296 2.22998296 3.61442213 4.16286436 5 7 C4.6875 9.8125 4.6875 9.8125 4 12 C3.34 12 2.68 12 2 12 C2 11.34 2 10.68 2 10 C0.68 9.67 -0.64 9.34 -2 9 C-1.125 2.25 -1.125 2.25 0 0 Z " fill="#04AC64" transform="translate(1519,1134)"/>
<path d="M0 0 C-1.26941497 3.91402949 -2.51167694 5.79072873 -6 8 C-6.268125 7.360625 -6.53625 6.72125 -6.8125 6.0625 C-7.88667752 3.66868314 -7.88667752 3.66868314 -11 3 C-9.73160474 2.49384702 -8.46016898 1.99530901 -7.1875 1.5 C-6.12595703 1.08234375 -6.12595703 1.08234375 -5.04296875 0.65625 C-3 0 -3 0 0 0 Z " fill="#04A962" transform="translate(1445,1111)"/>
<path d="M0 0 C1.875 0.75 1.875 0.75 2.875 2.75 C4.195 2.75 5.515 2.75 6.875 2.75 C6.875 4.4 6.875 6.05 6.875 7.75 C4.9375 7.375 4.9375 7.375 2.875 6.75 C2.545 6.09 2.215 5.43 1.875 4.75 C-0.435 4.75 -2.745 4.75 -5.125 4.75 C-5.125 3.76 -5.125 2.77 -5.125 1.75 C-2.125 -0.25 -2.125 -0.25 0 0 Z " fill="#04A862" transform="translate(1690.125,998.25)"/>
<path d="M0 0 C3.63 0.66 7.26 1.32 11 2 C10 6 10 6 7.9375 7.25 C6.9784375 7.62125 6.9784375 7.62125 6 8 C5.67 6.68 5.34 5.36 5 4 C3.35 3.67 1.7 3.34 0 3 C0 2.01 0 1.02 0 0 Z " fill="#04AF66" transform="translate(1190,1126)"/>
<path d="M0 0 C2.31 0 4.62 0 7 0 C7.33 1.65 7.66 3.3 8 5 C7.01 5.33 6.02 5.66 5 6 C4.34 5.34 3.68 4.68 3 4 C0.89179203 4.3185177 0.89179203 4.3185177 -1 5 C-0.67 3.35 -0.34 1.7 0 0 Z " fill="#04AA63" transform="translate(1557,1033)"/>
<path d="M0 0 C0.66 0 1.32 0 2 0 C2.66 3.96 3.32 7.92 4 12 C1.525 11.01 1.525 11.01 -1 10 C-1.125 2.25 -1.125 2.25 0 0 Z " fill="#04A962" transform="translate(1710,1016)"/>
<path d="M0 0 C3.04640463 2.86720436 5.78043089 5.83935407 8.375 9.125 C8.89835937 9.78757812 9.42171875 10.45015625 9.9609375 11.1328125 C10.30382813 11.74898437 10.64671875 12.36515625 11 13 C10.67 13.99 10.34 14.98 10 16 C7.704874 13.194846 5.47093512 10.34887761 3.3125 7.4375 C2.89613281 6.87933594 2.47976563 6.32117187 2.05078125 5.74609375 C0.90814501 3.84736364 0.43079059 2.16342088 0 0 Z " fill="#FFFFFF" transform="translate(1699,1068)"/>
<path d="M0 0 C1.32 0.33 2.64 0.66 4 1 C4 1.99 4 2.98 4 4 C4.99 4.33 5.98 4.66 7 5 C6.67 6.65 6.34 8.3 6 10 C5.34 10 4.68 10 4 10 C4 9.34 4 8.68 4 8 C3.34 8 2.68 8 2 8 C2 7.34 2 6.68 2 6 C1.34 6 0.68 6 0 6 C0 4.02 0 2.04 0 0 Z " fill="#23C982" transform="translate(1420,992)"/>
<path d="M0 0 C0.66 0.99 1.32 1.98 2 3 C-2.625 6 -2.625 6 -6 6 C-6.33 4.02 -6.66 2.04 -7 0 C-4.27584084 -1.36207958 -2.87220643 -0.86166193 0 0 Z " fill="#04AD64" transform="translate(1393,1081)"/>
<path d="M0 0 C3.375 0.3125 3.375 0.3125 7 1 C9.1519437 4.22791555 9.20086443 5.28400809 9 9 C8.01 9 7.02 9 6 9 C5 8 5 8 4.9375 5.4375 C4.958125 4.633125 4.97875 3.82875 5 3 C2.525 2.01 2.525 2.01 0 1 C0 0.67 0 0.34 0 0 Z " fill="#04AA63" transform="translate(1186,1026)"/>
<path d="M0 0 C3.6996929 0.7114794 6.80081088 2.00939343 10 4 C10.875 6.6875 10.875 6.6875 11 9 C9.35 8.67 7.7 8.34 6 8 C5.9071875 6.824375 5.9071875 6.824375 5.8125 5.625 C5.544375 4.75875 5.27625 3.8925 5 3 C2.52363988 1.62533375 2.52363988 1.62533375 0 1 C0 0.67 0 0.34 0 0 Z " fill="#44C990" transform="translate(1647,1119)"/>
<path d="M0 0 C0.33 0.99 0.66 1.98 1 3 C1.66 3 2.32 3 3 3 C2.67 4.32 2.34 5.64 2 7 C2 6.34 2 5.68 2 5 C1.01 5.495 1.01 5.495 0 6 C0 6.66 0 7.32 0 8 C-1.32 8 -2.64 8 -4 8 C-4.625 6.125 -4.625 6.125 -5 4 C-3 2 -3 2 0 0 Z " fill="#04AC64" transform="translate(1399,1075)"/>
<path d="M0 0 C0.99 0.33 1.98 0.66 3 1 C2.67 4.96 2.34 8.92 2 13 C1.01 13.33 0.02 13.66 -1 14 C-1.02705729 12.22925083 -1.04642195 10.45838289 -1.0625 8.6875 C-1.07410156 7.70136719 -1.08570313 6.71523438 -1.09765625 5.69921875 C-1 3 -1 3 0 0 Z " fill="#0CC274" transform="translate(1598,1002)"/>
<path d="M0 0 C0.66 0.66 1.32 1.32 2 2 C4.06874034 2.6425235 4.06874034 2.6425235 6 3 C6 3.66 6 4.32 6 5 C5.01 5 4.02 5 3 5 C3.66 7.97 4.32 10.94 5 14 C4.34 14 3.68 14 3 14 C2.01 11.03 1.02 8.06 0 5 C-0.66 5 -1.32 5 -2 5 C-2 4.34 -2 3.68 -2 3 C-1.34 3 -0.68 3 0 3 C0 2.01 0 1.02 0 0 Z " fill="#1DC87F" transform="translate(1531,976)"/>
<path d="M0 0 C-0.5625 1.9375 -0.5625 1.9375 -2 4 C-5.625 4.75 -5.625 4.75 -9 5 C-9.33 4.34 -9.66 3.68 -10 3 C-9.34 3 -8.68 3 -8 3 C-8 2.34 -8 1.68 -8 1 C-5.07175348 0.02391783 -3.04386724 -0.08226668 0 0 Z " fill="#1AAD6F" transform="translate(1604,1126)"/>
<path d="M0 0 C2.99324263 1.0975223 3.84610901 1.67682892 5.25 4.625 C5.4975 5.40875 5.745 6.1925 6 7 C1.545 6.01 1.545 6.01 -3 5 C-2.01 3.35 -1.02 1.7 0 0 Z " fill="#04AA63" transform="translate(1242,1112)"/>
<path d="M0 0 C6.11246492 0.39015734 11.05073216 2.32522173 16 6 C16.33 6.99 16.66 7.98 17 9 C14.67818484 8.58539015 13.19041935 8.14810394 11.3125 6.6875 C7.84368038 4.15619919 3.94385224 2.66012584 0 1 C0 0.67 0 0.34 0 0 Z " fill="#04AD64" transform="translate(1675,1058)"/>
<path d="M0 0 C0.66 0 1.32 0 2 0 C2 0.99 2 1.98 2 3 C4.31 3 6.62 3 9 3 C9 4.32 9 5.64 9 7 C5.44219804 6.39009109 2.3171411 5.4216319 -1 4 C-0.67 2.68 -0.34 1.36 0 0 Z " fill="#04AA63" transform="translate(1527,1040)"/>
<path d="M0 0 C0.99 0.33 1.98 0.66 3 1 C2.67 2.65 2.34 4.3 2 6 C-0.31 6.66 -2.62 7.32 -5 8 C-3.8141763 4.62496331 -2.72426311 2.35277269 0 0 Z " fill="#04AA63" transform="translate(1605,1033)"/>
<path d="M0 0 C1.670625 0.061875 1.670625 0.061875 3.375 0.125 C3.705 1.115 4.035 2.105 4.375 3.125 C-1.6796875 4.1015625 -1.6796875 4.1015625 -3.625 4.125 C-4.285 3.465 -4.945 2.805 -5.625 2.125 C-3.625 0.125 -3.625 0.125 0 0 Z " fill="#04AA63" transform="translate(1073.625,1034.875)"/>
<path d="M0 0 C0.66 0 1.32 0 2 0 C2 0.66 2 1.32 2 2 C3.32 2.66 4.64 3.32 6 4 C6 4.66 6 5.32 6 6 C5.34 6 4.68 6 4 6 C4 6.99 4 7.98 4 9 C3.34 9 2.68 9 2 9 C0.93347808 6.69631264 -0.06421005 4.35981813 -1 2 C-0.67 1.34 -0.34 0.68 0 0 Z " fill="#04AA63" transform="translate(1202,1127)"/>
<path d="M0 0 C0.33 0 0.66 0 1 0 C1.66 5.61 2.32 11.22 3 17 C2.34 17.33 1.68 17.66 1 18 C-0.3176312 15.36473759 -0.37393251 13.05890299 -0.625 10.125 C-0.72039062 9.07570313 -0.81578125 8.02640625 -0.9140625 6.9453125 C-0.99015863 4.33729071 -0.7960989 2.45958914 0 0 Z " fill="#FFFFFF" transform="translate(1639,1090)"/>
<path d="M0 0 C2.31 0 4.62 0 7 0 C7.33 0.66 7.66 1.32 8 2 C6.75 3.5625 6.75 3.5625 5 5 C2.8125 4.6875 2.8125 4.6875 1 4 C0.67 2.68 0.34 1.36 0 0 Z " fill="#04A862" transform="translate(1496,1109)"/>
<path d="M0 0 C2.31 0 4.62 0 7 0 C7 1.32 7 2.64 7 4 C4.69 4 2.38 4 0 4 C0 2.68 0 1.36 0 0 Z " fill="#04A963" transform="translate(1220,1059)"/>
<path d="M0 0 C2.64 0.66 5.28 1.32 8 2 C8 3.32 8 4.64 8 6 C5.6875 5.8125 5.6875 5.8125 3 5 C1.1875 2.4375 1.1875 2.4375 0 0 Z " fill="#04AA63" transform="translate(1498,969)"/>
<path d="M0 0 C0.99 0 1.98 0 3 0 C3 1.65 3 3.3 3 5 C1.35 5.33 -0.3 5.66 -2 6 C-1.125 1.125 -1.125 1.125 0 0 Z " fill="#04A962" transform="translate(1706,1012)"/>
<path d="M0 0 C3.23060419 0.55700072 5.0658223 1.29215122 7 4 C7.3125 6.5625 7.3125 6.5625 7 9 C6.34 9.66 5.68 10.32 5 11 C4.01 10.67 3.02 10.34 2 10 C2.66 10 3.32 10 4 10 C4.33448259 7.167832 4.33448259 7.167832 4 4 C2.12498069 1.62280307 2.12498069 1.62280307 0 0 Z " fill="#05C270" transform="translate(1556,976)"/>
<path d="M0 0 C0.598125 0.20625 1.19625 0.4125 1.8125 0.625 C-3.9375 5.625 -3.9375 5.625 -6.1875 5.625 C-5.875 3.75 -5.875 3.75 -5.1875 1.625 C-2.1875 -0.375 -2.1875 -0.375 0 0 Z " fill="#04AC64" transform="translate(1485.1875,1125.375)"/>
<path d="M0 0 C0.66 0.33 1.32 0.66 2 1 C2 2.32 2 3.64 2 5 C2.66 5.33 3.32 5.66 4 6 C4 6.66 4 7.32 4 8 C2.02 7.34 0.04 6.68 -2 6 C-2 5.01 -2 4.02 -2 3 C-1.34 3 -0.68 3 0 3 C0 2.01 0 1.02 0 0 Z " fill="#04B066" transform="translate(1511,1132)"/>
<path d="M0 0 C1.98 0 3.96 0 6 0 C6 0.66 6 1.32 6 2 C2.91190305 3.76462683 1.76687864 4 -2 4 C-1.34 2.68 -0.68 1.36 0 0 Z " fill="#04A862" transform="translate(1528,1035)"/>
<path d="M0 0 C-0.33 0.99 -0.66 1.98 -1 3 C0.32 3.66 1.64 4.32 3 5 C0.03 5 -2.94 5 -6 5 C-4.87312259 1.61936778 -3.78825335 0 0 0 Z " fill="#04B96C" transform="translate(1588,1112)"/>
<path d="M0 0 C2.4375 0.375 2.4375 0.375 5 1 C5.33 1.66 5.66 2.32 6 3 C3.525 4.485 3.525 4.485 1 6 C0 5 0 5 -0.0625 2.4375 C-0.041875 1.633125 -0.02125 0.82875 0 0 Z " fill="#04AB63" transform="translate(1250,1008)"/>
<path d="M0 0 C0 0.99 0 1.98 0 3 C-2.64 3 -5.28 3 -8 3 C-8 2.34 -8 1.68 -8 1 C-5.29120665 -0.35439668 -2.99066732 -0.06501451 0 0 Z " fill="#04A963" transform="translate(1534,987)"/>
<path d="M0 0 C0.625 1.8125 0.625 1.8125 1 4 C0.01 5.485 0.01 5.485 -1 7 C-1.99 6.67 -2.98 6.34 -4 6 C-3.6875 4.125 -3.6875 4.125 -3 2 C-2.01 1.34 -1.02 0.68 0 0 Z " fill="#04AA63" transform="translate(1203,1013)"/>
<path d="M0 0 C0.99 0 1.98 0 3 0 C3.33 2.64 3.66 5.28 4 8 C3.01 8.495 3.01 8.495 2 9 C1.34 6.03 0.68 3.06 0 0 Z " fill="#04AA63" transform="translate(1561,1124)"/>
<path d="M0 0 C-0.25 1.875 -0.25 1.875 -1 4 C-3.0625 5.25 -3.0625 5.25 -5 6 C-4.625 3.5625 -4.625 3.5625 -4 1 C-2 0 -2 0 0 0 Z " fill="#04AA63" transform="translate(1528,1076)"/>
<path d="M0 0 C3.67420866 0.30618405 4.78135513 0.75771784 7.3125 3.5625 C8.1478125 4.7690625 8.1478125 4.7690625 9 6 C6.5625 5.625 6.5625 5.625 4 5 C3.67 4.34 3.34 3.68 3 3 C2.01 2.67 1.02 2.34 0 2 C0 1.34 0 0.68 0 0 Z " fill="#03A661" transform="translate(1008,1057)"/>
<path d="M0 0 C1.98 1.65 3.96 3.3 6 5 C5.67 5.99 5.34 6.98 5 8 C2.5 5.6875 2.5 5.6875 0 3 C0 2.01 0 1.02 0 0 Z " fill="#FFFFFF" transform="translate(1675,1042)"/>
<path d="M0 0 C2.64 0.33 5.28 0.66 8 1 C6.35 2.32 4.7 3.64 3 5 C2.67 4.01 2.34 3.02 2 2 C1.34 2 0.68 2 0 2 C0 1.34 0 0.68 0 0 Z " fill="#1FBF7A" transform="translate(1540,1124)"/>
<path d="M0 0 C0.33 0.99 0.66 1.98 1 3 C1.66 3 2.32 3 3 3 C2.67 3.99 2.34 4.98 2 6 C0.68 6 -0.64 6 -2 6 C-2 4.68 -2 3.36 -2 2 C-1.34 2 -0.68 2 0 2 C0 1.34 0 0.68 0 0 Z " fill="#04AA63" transform="translate(1077,1041)"/>
<path d="M0 0 C2.0625 0.4375 2.0625 0.4375 4 1 C3.67 2.65 3.34 4.3 3 6 C2.34 6 1.68 6 1 6 C1 4.68 1 3.36 1 2 C0.34 1.67 -0.32 1.34 -1 1 C-0.67 0.67 -0.34 0.34 0 0 Z " fill="#04AA63" transform="translate(1326,1012)"/>
<path d="M0 0 C2.4375 0.375 2.4375 0.375 5 1 C5.33 1.66 5.66 2.32 6 3 C3.36 3 0.72 3 -2 3 C-1.34 2.01 -0.68 1.02 0 0 Z " fill="#04AB63" transform="translate(1602,1061)"/>
<path d="M0 0 C0.33 0.66 0.66 1.32 1 2 C0.0625 4.125 0.0625 4.125 -1 6 C-2.98 6 -4.96 6 -7 6 C-6.67 5.34 -6.34 4.68 -6 4 C-3.4375 3.375 -3.4375 3.375 -1 3 C-0.67 2.01 -0.34 1.02 0 0 Z " fill="#04B066" transform="translate(1042,1020)"/>
<path d="M0 0 C0.33 0.66 0.66 1.32 1 2 C-3.455 2.495 -3.455 2.495 -8 3 C-8.33 2.34 -8.66 1.68 -9 1 C-5.92677456 0.08941469 -3.19902639 -0.08886184 0 0 Z " fill="#73D4AB" transform="translate(1691,997)"/>
<path d="M0 0 C-0.33 1.65 -0.66 3.3 -1 5 C-1.66 5 -2.32 5 -3 5 C-3.33 5.66 -3.66 6.32 -4 7 C-4 5 -4 3 -4 1 C-2 0 -2 0 0 0 Z " fill="#04A962" transform="translate(1498,996)"/>
<path d="M0 0 C2 1 2 1 2 1 Z " fill="#FFFFFF" transform="translate(1731,1020)"/>
<path d="" fill="#FFFFFF" transform="translate(0,0)"/>
<path d="" fill="#FFFFFF" transform="translate(0,0)"/>
<path d="" fill="#FFFFFF" transform="translate(0,0)"/>
<path d="" fill="#FFFFFF" transform="translate(0,0)"/>
<path d="" fill="#FFFFFF" transform="translate(0,0)"/>
<path d="" fill="#FFFFFF" transform="translate(0,0)"/>
<path d="" fill="#FFFFFF" transform="translate(0,0)"/>
<path d="" fill="#FFFFFF" transform="translate(0,0)"/>
<path d="" fill="#FFFFFF" transform="translate(0,0)"/>
<path d="" fill="#FFFFFF" transform="translate(0,0)"/>
</svg>
